<svg width="6" height="11" viewBox="0 0 6 11" fill="none" xmlns="http://www.w3.org/2000/svg">
<path d="M1.31989 10.7426C1.42835 10.743 1.53551 10.7191 1.6335 10.6726C1.73149 10.6261 1.81782 10.5583 1.88615 10.474L5.39259 6.1182C5.49937 5.9883 5.55774 5.82536 5.55774 5.6572C5.55774 5.48905 5.49937 5.32611 5.39259 5.19621L1.76273 0.840384C1.63951 0.692128 1.46243 0.598896 1.27047 0.581197C1.0785 0.563498 0.887368 0.622782 0.739113 0.746008C0.590858 0.869233 0.497625 1.04631 0.479926 1.23827C0.462227 1.43024 0.521511 1.62137 0.644736 1.76963L3.88983 5.66083L0.753633 9.55204C0.664858 9.6586 0.608467 9.78836 0.591131 9.92597C0.573795 10.0636 0.596241 10.2033 0.65581 10.3285C0.715381 10.4538 0.809583 10.5593 0.92727 10.6327C1.04496 10.7061 1.1812 10.7443 1.31989 10.7426Z" fill="#10AA42"/>
</svg>
