<svg width="5" height="9" viewBox="0 0 5 9" fill="none" xmlns="http://www.w3.org/2000/svg">
<path d="M1.05924 8.71404C1.14574 8.71434 1.2312 8.69525 1.30935 8.65818C1.38749 8.62111 1.45634 8.567 1.51083 8.49983L4.3072 5.02608C4.39235 4.92249 4.4389 4.79255 4.4389 4.65844C4.4389 4.52434 4.39235 4.3944 4.3072 4.29081L1.41241 0.81706C1.31414 0.698827 1.17292 0.624475 1.01983 0.61036C0.86674 0.596245 0.714311 0.643524 0.596078 0.741795C0.477846 0.840067 0.403493 0.981281 0.389379 1.13437C0.375264 1.28746 0.422543 1.43989 0.520814 1.55813L3.10876 4.66134L0.607658 7.76455C0.536861 7.84954 0.491889 7.95302 0.478064 8.06276C0.464239 8.1725 0.482138 8.28391 0.529645 8.38379C0.577152 8.48368 0.652278 8.56787 0.746133 8.62639C0.839988 8.68492 0.948644 8.71534 1.05924 8.71404Z" fill="#10AA42"/>
</svg>
