<svg width="4" height="7" viewBox="0 0 4 7" fill="none" xmlns="http://www.w3.org/2000/svg">
<path d="M0.995299 6.67343C1.05958 6.67364 1.1231 6.65946 1.18118 6.6319C1.23926 6.60435 1.29043 6.56414 1.33093 6.51421L3.40928 3.93241C3.47257 3.85542 3.50717 3.75884 3.50717 3.65917C3.50717 3.5595 3.47257 3.46293 3.40928 3.38593L1.25778 0.804129C1.18474 0.716254 1.07979 0.660993 0.966005 0.650502C0.852223 0.640012 0.738933 0.675151 0.651058 0.74819C0.563184 0.821228 0.507923 0.926183 0.497432 1.03997C0.486942 1.15375 0.522081 1.26704 0.595119 1.35491L2.51856 3.66132L0.659664 5.96773C0.607046 6.03089 0.573622 6.10781 0.563346 6.18937C0.553071 6.27093 0.566374 6.35373 0.601683 6.42797C0.636992 6.50221 0.692827 6.56478 0.762583 6.60828C0.83234 6.65178 0.913097 6.67439 0.995299 6.67343Z" fill="#10AA42"/>
</svg>
