<svg width="55" height="65" viewBox="0 0 55 65" fill="none" xmlns="http://www.w3.org/2000/svg">
<path d="M13.5023 60.111L6.14404 55.6212C6.14404 55.6212 -2.96021 38.161 1.65427 20.7008C5.39574 6.60794 19.6133 -5.4895 37.323 3.86419C54.9079 13.3426 61.1437 26.5625 47.5497 44.5215C35.3275 60.8593 19.8628 63.9772 19.8628 63.9772L13.5023 60.111Z" fill="#399648"/>
<path d="M39.1936 5.11084C53.6607 14.3398 57.901 26.8114 45.5542 43.3986C33.332 59.7363 17.8672 62.8542 17.8672 62.8542L19.8627 64.1014C19.8627 64.1014 35.3275 60.8588 47.5496 44.6457C60.52 27.1855 55.282 14.3398 39.1936 5.11084Z" fill="#497E44"/>
<path d="M21.4839 6.85773C20.8603 7.98017 19.8626 8.60375 19.3637 8.2296C18.8649 7.85545 18.9896 6.73301 19.6132 5.73528C20.2368 4.61284 21.2345 3.98926 21.7333 4.36341C22.2322 4.61284 22.1075 5.73529 21.4839 6.85773Z" fill="#B1D8B0"/>
<path d="M26.4726 11.9706C25.849 13.0931 24.8513 13.7167 24.3524 13.3425C23.8535 12.9684 23.9783 11.8459 24.6018 10.8482C25.2254 9.72576 26.2231 9.10218 26.722 9.47633C27.2209 9.72576 27.0962 10.8482 26.4726 11.9706Z" fill="#B1D8B0"/>
<path d="M13.1281 11.2226C12.5045 12.345 11.5068 12.9686 11.0079 12.5945C10.509 12.2203 10.6338 11.0979 11.2573 10.1002C11.8809 8.97771 12.8786 8.35413 13.3775 8.72828C13.8764 8.97771 13.7517 10.1002 13.1281 11.2226Z" fill="#B1D8B0"/>
<path d="M18.7403 15.5873C18.1167 16.7098 17.119 17.3334 16.6201 16.9592C16.1213 16.5851 16.246 15.4626 16.8696 14.4649C17.4931 13.3425 18.4909 12.7189 18.9897 13.093C19.4886 13.3425 19.4886 14.4649 18.7403 15.5873Z" fill="#B1D8B0"/>
<path d="M31.3366 6.10907C30.713 7.23151 29.7153 7.8551 29.2164 7.48095C28.7175 7.1068 28.8422 5.98436 29.4658 4.98664C30.0894 3.98891 31.0871 3.24061 31.586 3.61475C32.0849 3.9889 31.9601 5.11134 31.3366 6.10907Z" fill="#B1D8B0"/>
<path d="M23.6043 21.0753C22.9807 22.1977 21.983 22.8213 21.4841 22.4471C20.9853 22.073 21.11 20.9505 21.7336 19.9528C22.3571 18.8304 23.3549 18.2068 23.8537 18.5809C24.3526 18.8304 24.2279 19.9528 23.6043 21.0753Z" fill="#B1D8B0"/>
<path d="M35.0779 11.8463C34.4543 12.9687 33.4566 13.5923 32.9578 13.2181C32.4589 12.844 32.5836 11.7215 33.2072 10.7238C33.8308 9.60137 34.8285 8.97779 35.3274 9.35194C35.8262 9.72608 35.8262 10.8485 35.0779 11.8463Z" fill="#B1D8B0"/>
<path d="M41.8128 12.5943C41.1892 13.7167 40.1915 14.3403 39.6926 13.9662C39.1937 13.592 39.3185 12.4696 39.942 11.4719C40.5656 10.3494 41.5633 9.72584 42.0622 10.1C42.5611 10.3494 42.5611 11.4719 41.8128 12.5943Z" fill="#B1D8B0"/>
<path d="M32.9579 19.9527C32.3343 21.0751 31.3366 21.6987 30.8377 21.3246C30.3389 20.9504 30.4636 19.828 31.0871 18.8303C31.7107 17.7078 32.7085 17.0842 33.2073 17.4584C33.7062 17.8325 33.7062 18.955 32.9579 19.9527Z" fill="#B1D8B0"/>
<path d="M47.3003 18.4559C46.6767 19.5783 45.679 20.2019 45.1801 19.8277C44.6813 19.4536 44.806 18.3312 45.4296 17.3334C46.0532 16.211 47.0509 15.5874 47.5497 15.9616C48.0486 16.3357 47.9239 17.4581 47.3003 18.4559Z" fill="#B1D8B0"/>
<path d="M28.3433 27.5605C27.7197 28.6829 26.7219 29.3065 26.2231 28.9324C25.7242 28.5582 25.8489 27.4358 26.4725 26.438C27.0961 25.3156 28.0938 24.692 28.5927 25.0662C29.0916 25.4403 29.0916 26.5628 28.3433 27.5605Z" fill="#B1D8B0"/>
<path d="M40.0668 22.197C39.4432 23.3194 38.4455 23.943 37.9466 23.5688C37.4477 23.1947 37.5724 22.0722 38.196 21.0745C38.8196 19.9521 39.8173 19.3285 40.3162 19.7026C40.8151 20.0768 40.8151 21.1992 40.0668 22.197Z" fill="#B1D8B0"/>
<path d="M36.2005 29.6804C35.577 30.8028 34.5792 31.4264 34.0804 31.0522C33.5815 30.6781 33.7062 29.5556 34.3298 28.5579C34.9534 27.4355 35.9511 26.8119 36.45 27.186C36.9488 27.4355 36.8241 28.5579 36.2005 29.6804Z" fill="#B1D8B0"/>
<path d="M45.9283 27.8091C45.3048 28.9316 44.307 29.5552 43.8082 29.181C43.3093 28.8069 43.434 27.6844 44.0576 26.6867C44.6812 25.5643 45.6789 24.9407 46.1778 25.3148C46.6766 25.689 46.5519 26.8114 45.9283 27.8091Z" fill="#B1D8B0"/>
<path d="M52.5382 27.8091C51.9146 28.9316 50.9169 29.5552 50.418 29.181C49.9191 28.8069 50.0439 27.6844 50.6674 26.6867C51.291 25.5643 52.2887 24.9407 52.7876 25.3148C53.2865 25.5643 53.2865 26.6867 52.5382 27.8091Z" fill="#B1D8B0"/>
<path d="M40.3163 35.6669C39.6927 36.7894 38.695 37.413 38.1961 37.0388C37.6973 36.6647 37.822 35.5422 38.4456 34.5445C39.0691 33.422 40.0669 32.7985 40.5657 33.1726C41.0646 33.5468 40.9399 34.6692 40.3163 35.6669Z" fill="#B1D8B0"/>
<path d="M49.0463 35.6669C48.4227 36.7894 47.425 37.413 46.9262 37.0388C46.4273 36.6647 46.552 35.5422 47.1756 34.5445C47.7992 33.422 48.7969 32.7985 49.2958 33.1726C49.7946 33.422 49.7946 34.5445 49.0463 35.6669Z" fill="#B1D8B0"/>
<path d="M44.6812 43.0247C44.0576 44.1472 43.0599 44.7707 42.561 44.3966C42.0622 44.0224 42.1869 42.9 42.8105 41.9023C43.4341 40.7798 44.4318 40.1563 44.9307 40.5304C45.4295 40.7798 45.3048 41.9023 44.6812 43.0247Z" fill="#B1D8B0"/>
<path d="M8.2641 17.0842C7.64052 18.2066 6.64279 18.8302 6.14393 18.456C5.64506 18.0819 5.76978 16.9595 6.39336 15.9617C7.01694 14.8393 8.01466 14.2157 8.51353 14.5899C9.01239 14.964 8.88767 16.0864 8.2641 17.0842Z" fill="#B1D8B0"/>
<path d="M12.7539 22.197C12.1303 23.3194 11.1326 23.943 10.6337 23.5688C10.1348 23.1947 10.2596 22.0722 10.8831 21.0745C11.5067 19.9521 12.5044 19.3285 13.0033 19.7026C13.5022 19.9521 13.3775 21.0745 12.7539 22.197Z" fill="#B1D8B0"/>
<path d="M6.01937 26.3131C5.3958 27.4355 4.39807 28.0591 3.89921 27.6849C3.40034 27.3108 3.52506 26.1883 4.14864 25.1906C4.77222 24.0682 5.76994 23.4446 6.2688 23.8187C6.76767 24.0682 6.64295 25.1906 6.01937 26.3131Z" fill="#B1D8B0"/>
<path d="M18.6156 27.1861C17.992 28.3085 16.9943 28.9321 16.4955 28.558C15.9966 28.1838 16.1213 27.0614 16.7449 26.0637C17.3685 24.9412 18.3662 24.3176 18.8651 24.6918C19.3639 25.0659 19.2392 26.0637 18.6156 27.1861Z" fill="#B1D8B0"/>
<path d="M10.6337 31.8002C10.0101 32.9227 9.01236 33.5463 8.5135 33.1721C8.01463 32.798 8.13934 31.6755 8.76292 30.6778C9.3865 29.5553 10.3842 28.9318 10.8831 29.3059C11.382 29.5553 11.2572 30.6778 10.6337 31.8002Z" fill="#B1D8B0"/>
<path d="M6.14405 39.1586C5.52048 40.2811 4.52275 40.9047 4.02388 40.5305C3.52502 40.1564 3.64974 39.0339 4.27332 38.0362C4.8969 36.9138 5.89462 36.2902 6.39349 36.6643C6.89235 36.9137 6.76763 38.0362 6.14405 39.1586Z" fill="#B1D8B0"/>
<path d="M17.1188 33.7958C16.4952 34.9183 15.4975 35.5419 14.9986 35.1677C14.4998 34.7936 14.6245 33.6711 15.2481 32.6734C15.8717 31.551 16.8694 30.9274 17.3682 31.3015C17.8671 31.6757 17.7424 32.7981 17.1188 33.7958Z" fill="#B1D8B0"/>
<path d="M26.2232 34.0451C25.5996 35.1675 24.6019 35.7911 24.103 35.417C23.6042 35.0428 23.7289 33.9204 24.3525 32.9227C24.9761 31.8002 25.9738 31.1766 26.4727 31.5508C26.9715 31.8002 26.8468 32.9227 26.2232 34.0451Z" fill="#B1D8B0"/>
<path d="M31.0872 38.0362C30.4636 39.1586 29.4659 39.7822 28.967 39.4081C28.4682 39.0339 28.5929 37.9115 29.2165 36.9138C29.84 35.7913 30.8378 35.1677 31.3366 35.5419C31.8355 35.7913 31.7108 36.9138 31.0872 38.0362Z" fill="#B1D8B0"/>
<path d="M18.9897 41.0291C18.3661 42.1516 17.3684 42.7751 16.8695 42.401C16.3706 42.0268 16.4954 40.9044 17.1189 39.9067C17.7425 38.7842 18.7402 38.1607 19.2391 38.5348C19.738 38.7842 19.6132 39.9067 18.9897 41.0291Z" fill="#B1D8B0"/>
<path d="M35.2028 44.0228C34.5792 45.1452 33.5815 45.7688 33.0826 45.3946C32.5837 45.0205 32.7085 43.898 33.332 42.9003C33.9556 41.7779 34.9533 41.1543 35.4522 41.5285C35.9511 41.9026 35.8264 42.9003 35.2028 44.0228Z" fill="#B1D8B0"/>
<path d="M24.2279 45.2696C23.6043 46.392 22.6065 47.0156 22.1077 46.6415C21.6088 46.2673 21.7335 45.1449 22.3571 44.1471C22.9807 43.0247 23.9784 42.4011 24.4773 42.7753C24.9761 43.1494 24.8514 44.2719 24.2279 45.2696Z" fill="#B1D8B0"/>
<path d="M37.697 50.2581C37.0734 51.3806 36.0757 52.0041 35.5769 51.63C35.078 51.2558 35.2027 50.1334 35.8263 49.1357C36.4499 48.0132 37.4476 47.3897 37.9465 47.7638C38.4453 48.0132 38.3206 49.1357 37.697 50.2581Z" fill="#B1D8B0"/>
<path d="M27.0961 51.8799C26.4726 53.0024 25.4748 53.626 24.976 53.2518C24.4771 52.8777 24.6018 51.7552 25.2254 50.7575C25.849 49.6351 26.8467 49.0115 27.3456 49.3856C27.8444 49.6351 27.7197 50.7575 27.0961 51.8799Z" fill="#B1D8B0"/>
<path d="M13.0034 40.6555C12.3798 41.7779 11.3821 42.4015 10.8832 42.0273C10.3844 41.6532 10.5091 40.5307 11.1327 39.533C11.7562 38.4106 12.754 37.787 13.2528 38.1611C13.7517 38.4106 13.627 39.533 13.0034 40.6555Z" fill="#B1D8B0"/>
<path d="M15.6223 50.7568C14.9987 51.8792 14.001 52.5028 13.5022 52.1286C13.0033 51.7545 13.128 50.6321 13.7516 49.6343C14.3752 48.5119 15.3729 47.8883 15.8718 48.2625C16.3706 48.6366 16.2459 49.759 15.6223 50.7568Z" fill="#B1D8B0"/>
<path d="M32.2096 53.8748C31.5861 54.9973 30.5883 55.6208 30.0895 55.2467C29.5906 54.8725 29.7153 53.7501 30.3389 52.7524C30.9625 51.6299 31.9602 51.0064 32.4591 51.3805C32.9579 51.6299 32.8332 52.7524 32.2096 53.8748Z" fill="#B1D8B0"/>
<path d="M8.6383 47.8889C8.01472 49.0113 7.017 49.6349 6.51813 49.2607C6.01927 48.8866 6.14399 47.7641 6.76756 46.7664C7.39114 45.644 8.38887 45.0204 8.88773 45.3945C9.3866 45.644 9.26188 46.7664 8.6383 47.8889Z" fill="#B1D8B0"/>
<path d="M21.3592 56.2447C20.7357 57.3671 19.7379 57.9907 19.2391 57.6166C18.7402 57.2424 18.8649 56.12 19.4885 55.1222C20.1121 53.9998 21.1098 53.3762 21.6087 53.7504C22.1075 53.9998 21.9828 55.1222 21.3592 56.2447Z" fill="#B1D8B0"/>
</svg>
