<svg width="64" height="72" viewBox="0 0 64 72" fill="none" xmlns="http://www.w3.org/2000/svg">
<path d="M37.8833 71.9691H27.6566C27.6566 71.9691 7.70203 59.8716 1.59096 39.4182C-3.27296 22.831 3.71112 1.75407 27.2824 0.382193C50.9784 -0.989681 65.4454 8.61343 62.7017 35.1779C60.3321 59.248 46.6134 71.9691 46.6134 71.9691H37.8833Z" fill="#399648"/>
<path d="M30.1508 0.257306C50.4795 0.756169 62.4522 10.7334 60.0826 35.053C57.713 59.1232 43.9943 71.8442 43.9943 71.8442H46.8628C46.8628 71.8442 60.4568 59.1232 62.9511 35.053C65.4454 9.61099 52.1008 -0.116842 30.1508 0.257306Z" fill="#497E44"/>
<path d="M13.1895 13.1029C13.1895 14.5995 12.5659 15.8466 11.8176 15.8466C11.0693 15.8466 10.4457 14.5995 10.4457 13.1029C10.4457 11.6063 11.0693 10.3591 11.8176 10.3591C12.5659 10.3591 13.1895 11.6063 13.1895 13.1029Z" fill="#B1D8B0"/>
<path d="M21.4206 15.0984C21.4206 16.595 20.797 17.8421 20.0487 17.8421C19.3004 17.8421 18.6769 16.595 18.6769 15.0984C18.6769 13.6018 19.3004 12.3546 20.0487 12.3546C20.9218 12.4793 21.4206 13.6018 21.4206 15.0984Z" fill="#B1D8B0"/>
<path d="M7.45239 22.5818C7.45239 24.0784 6.82882 25.3255 6.08052 25.3255C5.33223 25.3255 4.70865 24.0784 4.70865 22.5818C4.70865 21.0852 5.33223 19.838 6.08052 19.838C6.82882 19.838 7.45239 21.0852 7.45239 22.5818Z" fill="#B1D8B0"/>
<path d="M15.8084 23.4542C15.8084 24.9508 15.1848 26.1979 14.4365 26.1979C13.6882 26.1979 13.0647 24.9508 13.0647 23.4542C13.0647 21.9576 13.6882 20.7104 14.4365 20.7104C15.1848 20.8352 15.8084 21.9576 15.8084 23.4542Z" fill="#B1D8B0"/>
<path d="M22.7926 6.24387C22.7926 7.74045 22.169 8.98762 21.4207 8.98762C20.6724 8.98762 20.0488 7.74045 20.0488 6.24387C20.0488 4.74728 20.6724 3.50012 21.4207 3.50012C22.169 3.62484 22.7926 4.74728 22.7926 6.24387Z" fill="#B1D8B0"/>
<path d="M24.0397 26.1985C24.0397 27.695 23.4161 28.9422 22.6678 28.9422C21.9195 28.9422 21.296 27.695 21.296 26.1985C21.296 24.7019 21.9195 23.4547 22.6678 23.4547C23.5408 23.4547 24.0397 24.7019 24.0397 26.1985Z" fill="#B1D8B0"/>
<path d="M30.1508 9.73544C30.1508 11.232 29.5272 12.4792 28.7789 12.4792C28.0307 12.4792 27.4071 11.232 27.4071 9.73544C27.4071 8.23885 28.0307 6.9917 28.7789 6.9917C29.5272 7.11642 30.1508 8.23885 30.1508 9.73544Z" fill="#B1D8B0"/>
<path d="M37.3844 6.24387C37.3844 7.74045 36.7608 8.98762 36.0125 8.98762C35.2642 8.98762 34.6406 7.74045 34.6406 6.24387C34.6406 4.74728 35.2642 3.50012 36.0125 3.50012C36.7608 3.62484 37.3844 4.74728 37.3844 6.24387Z" fill="#B1D8B0"/>
<path d="M33.0193 19.3388C33.0193 20.8354 32.3957 22.0826 31.6474 22.0826C30.8991 22.0826 30.2755 20.8354 30.2755 19.3388C30.2755 17.8422 30.8991 16.5951 31.6474 16.5951C32.3957 16.5951 33.0193 17.8422 33.0193 19.3388Z" fill="#B1D8B0"/>
<path d="M46.6133 8.98741C46.6133 10.484 45.9897 11.7311 45.2414 11.7311C44.4931 11.7311 43.8696 10.484 43.8696 8.98741C43.8696 7.49082 44.4931 6.24365 45.2414 6.24365C45.9897 6.24365 46.6133 7.49082 46.6133 8.98741Z" fill="#B1D8B0"/>
<path d="M33.0193 29.8152C33.0193 31.3118 32.3957 32.5589 31.6474 32.5589C30.8991 32.5589 30.2755 31.3118 30.2755 29.8152C30.2755 28.3186 30.8991 27.0714 31.6474 27.0714C32.3957 27.0714 33.0193 28.3186 33.0193 29.8152Z" fill="#B1D8B0"/>
<path d="M41.6246 17.2182C41.6246 18.7148 41.0011 19.962 40.2528 19.962C39.5045 19.962 38.8809 18.7148 38.8809 17.2182C38.8809 15.7216 39.5045 14.4745 40.2528 14.4745C41.0011 14.4745 41.6246 15.7216 41.6246 17.2182Z" fill="#B1D8B0"/>
<path d="M40.8763 29.8147C41.634 29.8147 42.2482 28.5862 42.2482 27.0709C42.2482 25.5556 41.634 24.3271 40.8763 24.3271C40.1187 24.3271 39.5045 25.5556 39.5045 27.0709C39.5045 28.5862 40.1187 29.8147 40.8763 29.8147Z" fill="#B1D8B0"/>
<path d="M50.8537 19.3388C50.8537 20.8354 50.2301 22.0826 49.4818 22.0826C48.7336 22.0826 48.11 20.8354 48.11 19.3388C48.11 17.8422 48.7336 16.5951 49.4818 16.5951C50.3549 16.5951 50.8537 17.8422 50.8537 19.3388Z" fill="#B1D8B0"/>
<path d="M57.5882 15.0984C57.5882 16.595 56.9646 17.8421 56.2164 17.8421C55.4681 17.8421 54.8445 16.595 54.8445 15.0984C54.8445 13.6018 55.4681 12.3546 56.2164 12.3546C57.0894 12.4793 57.5882 13.6018 57.5882 15.0984Z" fill="#B1D8B0"/>
<path d="M49.9806 30.6882C49.9806 32.1848 49.3571 33.4319 48.6088 33.4319C47.8605 33.4319 47.2369 32.1848 47.2369 30.6882C47.2369 29.1916 47.8605 27.9445 48.6088 27.9445C49.3571 28.0692 49.9806 29.1916 49.9806 30.6882Z" fill="#B1D8B0"/>
<path d="M58.9602 25.3247C58.9602 26.8213 58.3366 28.0684 57.5883 28.0684C56.84 28.0684 56.2164 26.8213 56.2164 25.3247C56.2164 23.8281 56.84 22.5809 57.5883 22.5809C58.3366 22.5809 58.9602 23.8281 58.9602 25.3247Z" fill="#B1D8B0"/>
<path d="M58.9602 35.4274C58.9602 36.9239 58.3366 38.1711 57.5883 38.1711C56.84 38.1711 56.2164 36.9239 56.2164 35.4274C56.2164 33.9308 56.84 32.6836 57.5883 32.6836C58.3366 32.6836 58.9602 33.9308 58.9602 35.4274Z" fill="#B1D8B0"/>
<path d="M6.08059 31.6857C6.08059 33.1822 5.45701 34.4294 4.70872 34.4294C3.96042 34.4294 3.33685 33.1822 3.33685 31.6857C3.33685 30.1891 3.96042 28.9419 4.70872 28.9419C5.58173 28.9419 6.08059 30.1891 6.08059 31.6857Z" fill="#B1D8B0"/>
<path d="M13.6884 33.9299C13.6884 35.4265 13.0648 36.6737 12.3165 36.6737C11.5682 36.6737 10.9446 35.4265 10.9446 33.9299C10.9446 32.4333 11.5682 31.1862 12.3165 31.1862C13.1895 31.1862 13.6884 32.4333 13.6884 33.9299Z" fill="#B1D8B0"/>
<path d="M9.57261 42.2865C9.57261 43.7831 8.94903 45.0302 8.20074 45.0302C7.45244 45.0302 6.82887 43.7831 6.82887 42.2865C6.82887 40.7899 7.45244 39.5427 8.20074 39.5427C8.94903 39.5427 9.57261 40.7899 9.57261 42.2865Z" fill="#B1D8B0"/>
<path d="M22.7926 35.4274C22.7926 36.9239 22.169 38.1711 21.4207 38.1711C20.6724 38.1711 20.0488 36.9239 20.0488 35.4274C20.0488 33.9308 20.6724 32.6836 21.4207 32.6836C22.169 32.6836 22.7926 33.9308 22.7926 35.4274Z" fill="#B1D8B0"/>
<path d="M16.1825 47.7745C16.9402 47.7745 17.5544 46.5461 17.5544 45.0307C17.5544 43.5154 16.9402 42.287 16.1825 42.287C15.4249 42.287 14.8107 43.5154 14.8107 45.0307C14.8107 46.5461 15.4249 47.7745 16.1825 47.7745Z" fill="#B1D8B0"/>
<path d="M17.5544 55.132C17.5544 56.6286 16.9308 57.8758 16.1825 57.8758C15.4342 57.8758 14.8107 56.6286 14.8107 55.132C14.8107 53.6355 15.4342 52.3883 16.1825 52.3883C16.9308 52.513 17.5544 53.6355 17.5544 55.132Z" fill="#B1D8B0"/>
<path d="M25.4115 43.0351C25.4115 44.5317 24.7879 45.7789 24.0396 45.7789C23.2914 45.7789 22.6678 44.5317 22.6678 43.0351C22.6678 41.5385 23.2914 40.2914 24.0396 40.2914C24.7879 40.4161 25.4115 41.5385 25.4115 43.0351Z" fill="#B1D8B0"/>
<path d="M34.7653 37.6716C34.7653 39.1682 34.1417 40.4154 33.3934 40.4154C32.6451 40.4154 32.0215 39.1682 32.0215 37.6716C32.0215 36.175 32.6451 34.9279 33.3934 34.9279C34.1417 34.9279 34.7653 36.175 34.7653 37.6716Z" fill="#B1D8B0"/>
<path d="M42.1235 38.7948C42.1235 40.2914 41.4999 41.5385 40.7516 41.5385C40.0034 41.5385 39.3798 40.2914 39.3798 38.7948C39.3798 37.2982 40.0034 36.051 40.7516 36.051C41.6247 36.051 42.1235 37.2982 42.1235 38.7948Z" fill="#B1D8B0"/>
<path d="M31.6475 49.2711C31.6475 50.7677 31.0239 52.0148 30.2756 52.0148C29.5273 52.0148 28.9037 50.7677 28.9037 49.2711C28.9037 47.7745 29.5273 46.5273 30.2756 46.5273C31.0239 46.5273 31.6475 47.7745 31.6475 49.2711Z" fill="#B1D8B0"/>
<path d="M49.9806 42.2865C49.9806 43.7831 49.3571 45.0302 48.6088 45.0302C47.8605 45.0302 47.2369 43.7831 47.2369 42.2865C47.2369 40.7899 47.8605 39.5427 48.6088 39.5427C49.3571 39.5427 49.9806 40.7899 49.9806 42.2865Z" fill="#B1D8B0"/>
<path d="M39.6293 50.3929C39.6293 51.8895 39.0057 53.1367 38.2574 53.1367C37.5091 53.1367 36.8855 51.8895 36.8855 50.3929C36.8855 48.8963 37.5091 47.6492 38.2574 47.6492C39.0057 47.6492 39.6293 48.8963 39.6293 50.3929Z" fill="#B1D8B0"/>
<path d="M56.3411 47.0256C56.3411 48.5222 55.7175 49.7694 54.9692 49.7694C54.2209 49.7694 53.5974 48.5222 53.5974 47.0256C53.5974 45.529 54.2209 44.2819 54.9692 44.2819C55.7175 44.4066 56.3411 45.529 56.3411 47.0256Z" fill="#B1D8B0"/>
<path d="M46.6133 55.132C46.6133 56.6286 45.9897 57.8758 45.2414 57.8758C44.4931 57.8758 43.8696 56.6286 43.8696 55.132C43.8696 53.6355 44.4931 52.3883 45.2414 52.3883C45.9897 52.513 46.6133 53.6355 46.6133 55.132Z" fill="#B1D8B0"/>
<path d="M25.4115 52.5134C25.4115 54.01 24.7879 55.2571 24.0396 55.2571C23.2914 55.2571 22.6678 54.01 22.6678 52.5134C22.6678 51.0168 23.2914 49.7697 24.0396 49.7697C24.7879 49.7697 25.4115 51.0168 25.4115 52.5134Z" fill="#B1D8B0"/>
<path d="M34.2664 61.2436C34.2664 62.7402 33.6428 63.9874 32.8945 63.9874C32.1462 63.9874 31.5227 62.7402 31.5227 61.2436C31.5227 59.747 32.1462 58.4999 32.8945 58.4999C33.6428 58.4999 34.2664 59.747 34.2664 61.2436Z" fill="#B1D8B0"/>
<path d="M52.9738 54.1346C52.9738 55.6312 52.3502 56.8784 51.6019 56.8784C50.8536 56.8784 50.23 55.6312 50.23 54.1346C50.23 52.638 50.8536 51.3909 51.6019 51.3909C52.3502 51.3909 52.9738 52.638 52.9738 54.1346Z" fill="#B1D8B0"/>
<path d="M25.4115 62.4911C25.4115 63.9876 24.7879 65.2348 24.0396 65.2348C23.2914 65.2348 22.6678 63.9876 22.6678 62.4911C22.6678 60.9945 23.2914 59.7473 24.0396 59.7473C24.7879 59.872 25.4115 60.9945 25.4115 62.4911Z" fill="#B1D8B0"/>
<path d="M43.4955 63.1141C43.4955 64.6107 42.8719 65.8578 42.1236 65.8578C41.3753 65.8578 40.7517 64.6107 40.7517 63.1141C40.7517 61.6175 41.3753 60.3704 42.1236 60.3704C42.8719 60.3704 43.4955 61.6175 43.4955 63.1141Z" fill="#B1D8B0"/>
</svg>
