<svg width="42" height="43" viewBox="0 0 42 43" fill="none" xmlns="http://www.w3.org/2000/svg">
<path d="M35.8718 38.9803L30.509 42.0982C30.509 42.0982 16.4162 41.9735 7.06248 33.2434C-0.545184 26.1346 -3.41365 13.0394 8.43435 5.18235C20.2824 -2.79946 30.6338 -2.3006 37.4931 12.2912C43.7289 25.511 40.4863 36.2366 40.4863 36.2366L35.8718 38.9803Z" fill="#399648"/>
<path d="M9.80601 4.30977C20.4068 -1.67658 29.7605 -0.179996 35.9963 13.1646C42.2321 26.3845 38.9895 37.11 38.9895 37.11L40.4861 36.237C40.4861 36.237 43.604 25.3867 37.4929 12.2916C31.0077 -1.67659 21.0304 -2.67431 9.80601 4.30977Z" fill="#497E44"/>
<path d="M7.18719 12.6651C7.81077 13.7875 7.93549 14.91 7.43662 15.1594C6.93776 15.4088 5.94003 14.91 5.31645 13.7875C4.69288 12.6651 4.56816 11.5427 5.06702 11.2932C5.56588 10.9191 6.56361 11.5427 7.18719 12.6651Z" fill="#B1D8B0"/>
<path d="M5.19166 20.2726C5.81524 21.395 5.93996 22.5175 5.44109 22.7669C4.94223 23.0163 3.9445 22.5175 3.32092 21.395C2.69735 20.2726 2.57263 19.1501 3.07149 18.9007C3.57036 18.6513 4.56808 19.2749 5.19166 20.2726Z" fill="#B1D8B0"/>
<path d="M12.3004 18.6514C12.9239 19.7738 13.0487 20.8962 12.5498 21.1457C12.0509 21.3951 11.0532 20.8962 10.4296 19.7738C9.80605 18.6514 9.68133 17.5289 10.1802 17.2795C10.6791 17.0301 11.6768 17.6536 12.3004 18.6514Z" fill="#B1D8B0"/>
<path d="M15.6679 9.92114C16.2914 11.0436 16.4162 12.166 15.9173 12.4155C15.4184 12.6649 14.4207 12.166 13.7971 11.0436C13.1736 9.92114 13.0488 8.7987 13.5477 8.54926C14.1713 8.29983 15.0443 8.92341 15.6679 9.92114Z" fill="#B1D8B0"/>
<path d="M20.1576 17.5294C20.7812 18.6518 20.9059 19.7742 20.4071 20.0237C19.9082 20.2731 18.9105 19.7742 18.2869 18.6518C17.6633 17.5294 17.5386 16.4069 18.0375 16.1575C18.6611 15.7833 19.5341 16.4069 20.1576 17.5294Z" fill="#B1D8B0"/>
<path d="M20.9059 4.80804C21.5295 5.93048 21.6542 7.05292 21.1553 7.30235C20.6565 7.55178 19.6587 7.05292 19.0352 5.93048C18.4116 4.80804 18.2869 3.6856 18.7857 3.43617C19.4093 3.06202 20.2823 3.6856 20.9059 4.80804Z" fill="#B1D8B0"/>
<path d="M25.6452 11.667C26.2688 12.7895 26.3935 13.9119 25.8946 14.1614C25.3958 14.4108 24.398 13.9119 23.7745 12.7895C23.1509 11.667 23.0262 10.5446 23.525 10.2952C24.0239 9.92103 25.0216 10.5446 25.6452 11.667Z" fill="#B1D8B0"/>
<path d="M28.2641 4.80804C28.8877 5.93048 29.0124 7.05292 28.5136 7.30235C28.0147 7.55178 27.017 7.05292 26.3934 5.93048C25.7698 4.80804 25.6451 3.6856 26.144 3.43617C26.6428 3.06202 27.5158 3.6856 28.2641 4.80804Z" fill="#B1D8B0"/>
<path d="M32.7539 10.9191C33.3775 12.0415 33.5022 13.164 33.0033 13.4134C32.5045 13.6628 31.5067 13.164 30.8832 12.0415C30.2596 10.9191 30.1349 9.79663 30.6337 9.5472C31.1326 9.29777 32.1303 9.79663 32.7539 10.9191Z" fill="#B1D8B0"/>
<path d="M38.6157 26.2595C39.2392 27.3819 39.364 28.5043 38.8651 28.7538C38.3662 29.0032 37.3685 28.5043 36.7449 27.3819C36.1213 26.2595 35.9966 25.137 36.4955 24.8876C36.9944 24.5134 37.9921 25.137 38.6157 26.2595Z" fill="#B1D8B0"/>
<path d="M8.18496 28.6284C8.80854 29.7509 8.93326 30.8733 8.43439 31.1227C7.93553 31.3722 6.9378 30.8733 6.31422 29.7509C5.69064 28.6284 5.56593 27.506 6.0648 27.2565C6.56366 27.0071 7.43667 27.6307 8.18496 28.6284Z" fill="#B1D8B0"/>
<path d="M15.2937 25.8852C15.9172 27.0076 16.042 28.1301 15.5431 28.3795C15.0442 28.6289 14.0465 28.1301 13.4229 27.0076C12.7994 25.8852 12.6746 24.7627 13.1735 24.5133C13.6724 24.1392 14.5454 24.7627 15.2937 25.8852Z" fill="#B1D8B0"/>
<path d="M15.5432 34.9897C16.1668 36.1121 16.2915 37.2346 15.7926 37.484C15.2938 37.7334 14.296 37.2346 13.6725 36.1121C13.0489 34.9897 12.9242 33.8672 13.423 33.6178C14.0466 33.2437 14.9196 33.8672 15.5432 34.9897Z" fill="#B1D8B0"/>
<path d="M20.407 30.2499C21.0306 31.3724 21.1553 32.4948 20.6564 32.7442C20.1576 32.9937 19.1599 32.4948 18.5363 31.3724C17.9127 30.2499 17.788 29.1275 18.2868 28.8781C18.7857 28.5039 19.7834 29.1275 20.407 30.2499Z" fill="#B1D8B0"/>
<path d="M24.7721 22.393C25.3957 23.5154 25.5204 24.6378 25.0215 24.8873C24.5227 25.1367 23.525 24.6378 22.9014 23.5154C22.2778 22.393 22.1531 21.2705 22.6519 21.0211C23.2755 20.7716 24.1485 21.2705 24.7721 22.393Z" fill="#B1D8B0"/>
<path d="M30.6337 20.0236C31.2573 21.1461 31.382 22.2685 30.8831 22.5179C30.3843 22.7674 29.3865 22.2685 28.763 21.1461C28.1394 20.0236 28.0147 18.9012 28.5135 18.6517C29.0124 18.2776 29.8854 18.9012 30.6337 20.0236Z" fill="#B1D8B0"/>
<path d="M27.5159 31.9963C28.1395 33.1188 28.2642 34.2412 27.7653 34.4906C27.2664 34.7401 26.2687 34.2412 25.6451 33.1188C25.0216 31.9963 24.8968 30.8739 25.3957 30.6245C25.8946 30.375 26.8923 30.9986 27.5159 31.9963Z" fill="#B1D8B0"/>
<path d="M37.7426 19.1501C38.3661 20.2726 38.4909 21.395 37.992 21.6445C37.4931 21.8939 36.4954 21.395 35.8718 20.2726C35.2482 19.1501 35.1235 18.0277 35.6224 17.7783C36.1213 17.5288 37.119 18.1524 37.7426 19.1501Z" fill="#B1D8B0"/>
<path d="M33.7517 29.3771C34.3753 30.4995 34.5 31.622 34.0011 31.8714C33.5022 32.1208 32.5045 31.622 31.8809 30.4995C31.2574 29.3771 31.1326 28.2546 31.6315 28.0052C32.1304 27.7558 33.0034 28.3793 33.7517 29.3771Z" fill="#B1D8B0"/>
<path d="M33.7517 35.9868C34.3753 37.1093 34.5 38.2317 34.0011 38.4811C33.5022 38.7306 32.5045 38.2317 31.8809 37.1093C31.2574 35.9868 31.1326 34.8644 31.6315 34.6149C32.1304 34.3655 33.0034 34.9891 33.7517 35.9868Z" fill="#B1D8B0"/>
<path d="M24.3981 36.9847C25.0217 38.1072 25.1464 39.2296 24.6475 39.4791C24.1486 39.7285 23.1509 39.2296 22.5273 38.1072C21.9038 36.9847 21.779 35.8623 22.2779 35.6129C22.7768 35.3634 23.7745 35.8623 24.3981 36.9847Z" fill="#B1D8B0"/>
</svg>
