<svg width="32" height="34" viewBox="0 0 32 34" fill="none" xmlns="http://www.w3.org/2000/svg">
<path d="M26.8152 31.8557L22.4502 33.9759C22.4502 33.9759 11.5999 32.9782 4.86525 25.6199C-0.497532 19.6336 -1.86941 9.40689 7.73371 4.04411C17.3368 -1.31867 25.4434 -0.196223 29.6837 11.4023C33.5499 22.0032 30.432 30.1097 30.432 30.1097L26.8152 31.8557Z" fill="#399648"/>
<path d="M8.98097 3.41972C17.5864 -0.571187 24.6952 1.17484 28.6861 12.0251C32.5523 22.626 29.4344 30.7325 29.4344 30.7325L30.6815 30.1089C30.6815 30.1089 33.7994 22.0024 29.9332 11.4015C25.6929 0.17711 18.0852 -1.31948 8.98097 3.41972Z" fill="#497E44"/>
<path d="M6.36178 9.65675C6.73593 10.5298 6.73593 11.4028 6.36178 11.6522C5.98763 11.9016 5.23934 11.2781 4.86519 10.405C4.49104 9.53203 4.49104 8.65902 4.86519 8.40959C5.23934 8.28487 5.86291 8.78374 6.36178 9.65675Z" fill="#B1D8B0"/>
<path d="M4.24174 15.3933C4.61589 16.2663 4.61589 17.1393 4.24174 17.3888C3.86759 17.6382 3.1193 17.0146 2.74515 16.1416C2.371 15.2686 2.371 14.3956 2.74515 14.1462C3.24401 14.0214 3.86759 14.5203 4.24174 15.3933Z" fill="#B1D8B0"/>
<path d="M9.85397 14.6453C10.2281 15.5183 10.2281 16.3913 9.85397 16.6407C9.47982 16.8902 8.73152 16.2666 8.35738 15.3936C7.98323 14.5206 7.98323 13.6475 8.35738 13.3981C8.73152 13.2734 9.47982 13.7723 9.85397 14.6453Z" fill="#B1D8B0"/>
<path d="M13.0965 8.15992C13.4706 9.03293 13.4706 9.90595 13.0965 10.1554C12.7223 10.4048 11.974 9.78123 11.5999 8.90822C11.2257 8.03521 11.2257 7.1622 11.5999 6.91276C11.974 6.78805 12.7223 7.28691 13.0965 8.15992Z" fill="#B1D8B0"/>
<path d="M16.0898 14.2709C16.4639 15.1439 16.4639 16.0169 16.0898 16.2663C15.7156 16.5158 14.9673 15.8922 14.5932 15.0192C14.219 14.1462 14.219 13.2732 14.5932 13.0237C14.9673 12.899 15.5909 13.3979 16.0898 14.2709Z" fill="#B1D8B0"/>
<path d="M17.4616 4.54318C17.8357 5.41619 17.8357 6.2892 17.4616 6.53863C17.0874 6.78806 16.3391 6.16448 15.965 5.29147C15.5908 4.41846 15.5908 3.54546 15.965 3.29602C16.3391 3.04659 17.0874 3.67017 17.4616 4.54318Z" fill="#B1D8B0"/>
<path d="M20.5795 10.1554C20.9537 11.0284 20.9537 11.9014 20.5795 12.1508C20.2054 12.4002 19.4571 11.7767 19.0829 10.9037C18.7088 10.0306 18.7088 9.15764 19.0829 8.90821C19.5818 8.65877 20.2054 9.28235 20.5795 10.1554Z" fill="#B1D8B0"/>
<path d="M23.0738 4.91761C23.4479 5.79062 23.4479 6.66363 23.0738 6.91306C22.6996 7.16249 21.9513 6.53891 21.5772 5.6659C21.203 4.79289 21.203 3.91989 21.5772 3.67045C21.9513 3.54574 22.6996 4.0446 23.0738 4.91761Z" fill="#B1D8B0"/>
<path d="M26.1918 10.0304C26.5659 10.9034 26.5659 11.7764 26.1918 12.0258C25.8176 12.2753 25.0693 11.6517 24.6952 10.7787C24.321 9.90566 24.321 9.03264 24.6952 8.78321C25.0693 8.53377 25.8176 9.15735 26.1918 10.0304Z" fill="#B1D8B0"/>
<path d="M29.6838 22.2523C30.0579 23.1253 30.0579 23.9983 29.6838 24.2478C29.3096 24.4972 28.5613 23.8736 28.1872 23.0006C27.813 22.1276 27.813 21.2546 28.1872 21.0052C28.5613 20.8805 29.3096 21.3793 29.6838 22.2523Z" fill="#B1D8B0"/>
<path d="M5.98775 22.1286C6.3619 23.0016 6.3619 23.8746 5.98775 24.1241C5.6136 24.3735 4.86531 23.7499 4.49116 22.8769C4.11701 22.0039 4.11701 21.1309 4.49116 20.8815C4.86531 20.632 5.6136 21.2556 5.98775 22.1286Z" fill="#B1D8B0"/>
<path d="M11.7246 20.3818C12.0988 21.2549 12.0988 22.1279 11.7246 22.3773C11.3505 22.6267 10.6022 22.0031 10.2281 21.1301C9.85391 20.2571 9.85391 19.3841 10.2281 19.1347C10.6022 19.01 11.2258 19.5088 11.7246 20.3818Z" fill="#B1D8B0"/>
<path d="M11.3504 27.4908C11.7246 28.3638 11.7246 29.2368 11.3504 29.4863C10.9763 29.7357 10.228 29.1121 9.85385 28.2391C9.47971 27.3661 9.47971 26.4931 9.85385 26.2437C10.228 25.9942 10.9763 26.6178 11.3504 27.4908Z" fill="#B1D8B0"/>
<path d="M15.3415 24.1235C15.7157 24.9966 15.7157 25.8696 15.3415 26.119C14.9674 26.3684 14.2191 25.7448 13.8449 24.8718C13.4708 23.9988 13.4708 23.1258 13.8449 22.8764C14.3438 22.7517 14.9674 23.2505 15.3415 24.1235Z" fill="#B1D8B0"/>
<path d="M19.3324 18.3869C19.7066 19.2599 19.7066 20.133 19.3324 20.3824C18.9583 20.6318 18.21 20.0082 17.8358 19.1352C17.4617 18.2622 17.4617 17.3892 17.8358 17.1398C18.21 16.8903 18.8335 17.5139 19.3324 18.3869Z" fill="#B1D8B0"/>
<path d="M23.9469 16.8901C24.321 17.7632 24.321 18.6362 23.9469 18.8856C23.5727 19.135 22.8244 18.5115 22.4503 17.6384C22.0761 16.7654 22.0761 15.8924 22.4503 15.643C22.8244 15.5183 23.448 16.0171 23.9469 16.8901Z" fill="#B1D8B0"/>
<path d="M20.8291 25.9946C21.2032 26.8676 21.2032 27.7406 20.8291 27.99C20.4549 28.2395 19.7066 27.6159 19.3325 26.7429C18.9583 25.8699 18.9583 24.9969 19.3325 24.7474C19.7066 24.498 20.3302 25.1216 20.8291 25.9946Z" fill="#B1D8B0"/>
<path d="M29.4342 16.7651C29.8084 17.6381 29.8084 18.5111 29.4342 18.7606C29.0601 19.01 28.3118 18.3864 27.9377 17.5134C27.5635 16.6404 27.5635 15.7674 27.9377 15.5179C28.3118 15.2685 29.0601 15.8921 29.4342 16.7651Z" fill="#B1D8B0"/>
<path d="M25.6927 24.3728C26.0669 25.2458 26.0669 26.1188 25.6927 26.3683C25.3186 26.6177 24.5703 25.9941 24.1961 25.1211C23.822 24.2481 23.822 23.3751 24.1961 23.1257C24.5703 23.0009 25.3186 23.4998 25.6927 24.3728Z" fill="#B1D8B0"/>
<path d="M25.3187 29.4863C25.6928 30.3593 25.6928 31.2323 25.3187 31.4817C24.9445 31.7312 24.1962 31.1076 23.8221 30.2346C23.4479 29.3616 23.4479 28.4886 23.8221 28.2391C24.1962 27.9897 24.8198 28.6133 25.3187 29.4863Z" fill="#B1D8B0"/>
<path d="M18.0851 29.6113C18.4593 30.4843 18.4593 31.3574 18.0851 31.6068C17.711 31.8562 16.9627 31.2326 16.5885 30.3596C16.2144 29.4866 16.2144 28.6136 16.5885 28.3642C16.9627 28.2395 17.5863 28.7383 18.0851 29.6113Z" fill="#B1D8B0"/>
</svg>
