<svg width="180" height="68" viewBox="0 0 180 68" fill="none" xmlns="http://www.w3.org/2000/svg">
<path id="Ellipse 35" d="M178.785 33.743C178.785 37.9856 176.485 42.1485 172.059 46.0548C167.634 49.9597 161.174 53.522 153.106 56.5338C136.977 62.5547 114.628 66.299 89.8923 66.299C65.157 66.299 42.8078 62.5547 26.6786 56.5338C18.6102 53.522 12.1505 49.9597 7.72589 46.0548C3.29986 42.1485 1 37.9856 1 33.743C1 29.5004 3.29986 25.3375 7.72589 21.4313C12.1505 17.5263 18.6102 13.964 26.6786 10.9522C42.8078 4.93131 65.157 1.18701 89.8923 1.18701C114.628 1.18701 136.977 4.93131 153.106 10.9522C161.174 13.964 167.634 17.5263 172.059 21.4313C176.485 25.3375 178.785 29.5004 178.785 33.743Z" stroke="#0CA941" stroke-width="2"/>
</svg>
