<svg width="88" height="76" viewBox="0 0 88 76" fill="none" xmlns="http://www.w3.org/2000/svg">
<g id="Group">
<g id="Group_2">
<path id="Vector" d="M17.5149 11.3144C17.0864 15.6608 18.8006 19.2726 21.5556 21.7825C20.2087 21.0479 18.7394 20.5582 17.1476 20.2521C11.6989 19.2726 2.27074 21.0479 0.311653 30.1081C-0.48423 38.1276 5.76039 42.1067 8.51537 43.4535C12.0662 45.1676 15.3722 45.29 18.1271 44.8615C14.6987 46.3919 11.9438 49.2079 11.0254 53.4319C9.67857 67.0222 26.1472 72.4705 34.7794 66.8997C36.2487 65.9203 38.2691 64.2062 39.4323 61.329C39.4935 71.9196 53.0847 79.2657 63.1863 73.2664C70.7778 68.7363 70.9614 59.37 65.3902 53.6156C65.6351 53.738 65.8188 53.8604 66.0637 53.9829C68.6962 55.2072 70.1655 55.3909 72.0634 55.6358C72.2471 55.6358 77.206 56.2479 81.7364 53.3095C92.0829 46.698 88.7769 31.8222 76.2265 28.8838C73.2878 28.2104 70.9614 28.4552 69.9819 28.5777C69.6757 28.6389 69.3084 28.7001 69.0023 28.8225C69.4921 28.5777 69.9206 28.3328 70.4104 28.0267C80.4508 21.4152 77.0223 6.8455 64.778 4.0295C61.4721 3.29489 56.4519 3.17247 51.2481 6.90673C50.6358 7.33525 48.6155 9.11054 47.5135 11.3756C47.1462 12.1714 46.9625 12.9673 46.8401 13.7631C46.8401 7.82499 42.3097 1.94813 34.657 0.601343C30.6776 -0.133265 19.7801 0.478908 17.5149 11.3144Z" fill="white"/>
</g>
<path id="Vector_2" d="M45.6162 28.3916C54.126 30.473 56.4524 40.329 49.4119 44.6754C42.7388 48.8382 32.2086 44.1857 33.0657 35.4928C34.4738 28.8813 41.2694 27.3509 45.6162 28.3916Z" fill="#FFD700"/>
<path id="Vector_3" d="M17.1479 20.2516C27.8617 22.2105 33.9838 35.005 24.8006 42.1674C24.7394 42.2286 17.2091 47.7994 8.45442 43.453C5.76067 42.1062 -0.4839 38.127 0.250759 30.1076C2.27107 21.0474 11.6379 19.2721 17.1479 20.2516Z" fill="#FFBCB0"/>
<path id="Vector_4" d="M76.2268 28.8214C88.7772 31.8211 92.0831 46.6357 81.7367 53.2472C77.1451 56.1857 72.2474 55.5735 72.0637 55.5735C70.1658 55.3286 68.6965 55.1449 66.064 53.9206C64.3498 53.1248 63.1865 51.5943 61.5948 50.6761C61.5336 50.6761 57.1256 47.1867 57.7991 39.5957C58.6562 35.8002 60.0643 32.923 64.7783 30.2294C65.513 29.8009 66.3701 29.8621 67.166 29.6173C68.1455 29.3112 69.0026 28.6378 70.0434 28.5153C70.9617 28.3929 73.2881 28.148 76.2268 28.8214Z" fill="#FFBCB0"/>
<path id="Vector_5" d="M28.5965 44.0645C34.1064 45.4113 38.3919 49.3292 39.7388 54.2878C40.1673 56.0019 40.1673 56.0019 39.6163 58.8791C39.4327 59.6749 39.6775 60.532 39.3714 61.2666C38.2082 64.1438 36.1879 65.8579 34.7186 66.8374C26.0252 72.4694 9.5566 66.9598 10.9647 53.3695C12.6789 45.2888 21.3111 42.2892 28.5965 44.0645Z" fill="#FFBCB0"/>
<path id="Vector_6" d="M64.7784 3.96803C77.0227 6.78403 80.4511 21.3538 70.4108 27.9652C61.5948 33.7809 47.6975 29.1896 46.2894 17.2522C46.9016 15.2932 46.6567 13.2119 47.5138 11.3141C48.5546 9.04908 50.5749 7.27376 51.2484 6.84524C56.4522 3.11098 61.4724 3.23342 64.7784 3.96803Z" fill="#FFBCB0"/>
<path id="Vector_7" d="M34.7187 0.600293C46.7181 2.68169 51.126 16.1495 42.0652 23.1283C33.0045 30.1071 16.2298 24.0466 17.4542 11.3745C19.7806 0.477844 30.678 -0.134316 34.7187 0.600293Z" fill="#FFBCB0"/>
<path id="Vector_8" d="M58.5336 49.4529C70.2882 53.0648 73.0432 67.2672 63.0641 73.2053C52.2891 79.6331 37.5346 70.8178 39.4937 59.1865C41.2079 50.4936 50.8809 47.0655 58.5336 49.4529Z" fill="#FFBCB0"/>
</g>
</svg>
