<svg width="50" height="43" viewBox="0 0 50 43" fill="none" xmlns="http://www.w3.org/2000/svg">
<g id="Group">
<g id="Group_2">
<path id="Vector" d="M9.99596 6.21991C9.75107 8.66861 10.7306 10.6888 12.2612 12.0968C11.5265 11.6683 10.6694 11.4234 9.8123 11.2397C6.75122 10.6888 1.48617 11.6683 0.384182 16.7493C-0.0443687 21.2794 3.44526 23.4832 4.9758 24.2178C6.93489 25.1973 8.83275 25.2585 10.3633 25.0137C8.4042 25.8707 6.87366 27.4624 6.38389 29.7886C5.58801 37.3796 14.8325 40.4405 19.7302 37.3184C20.5873 36.7674 21.6893 35.7879 22.3015 34.1963C22.3015 40.1344 29.9542 44.2359 35.5866 40.869C39.8109 38.3591 39.9333 33.0944 36.811 29.8498C36.9335 29.9111 37.0559 29.9723 37.1783 30.0335C38.6477 30.7069 39.5048 30.8293 40.5455 30.9518C40.668 30.9518 43.423 31.3191 45.9943 29.6662C51.8103 25.9319 49.9124 17.6676 42.9332 15.9535C41.2802 15.5862 39.9945 15.7086 39.4435 15.7698C39.2599 15.7698 39.0762 15.8311 38.8926 15.8923C39.1374 15.7698 39.4435 15.5862 39.6884 15.4637C45.3208 11.7295 43.3617 3.58757 36.5049 2.05714C34.6683 1.62862 31.8521 1.5674 28.9134 3.64879C28.5461 3.89366 27.4441 4.87315 26.8319 6.15871C26.6482 6.58723 26.5258 7.01574 26.4646 7.50548C26.4646 4.19974 23.8933 0.894003 19.669 0.159394C17.4038 -0.207911 11.2816 0.0981728 9.99596 6.21991Z" fill="white"/>
</g>
<path id="Vector_2" d="M25.7299 15.7693C30.5052 16.9324 31.7909 22.442 27.8727 24.8907C24.1382 27.2169 18.2609 24.5846 18.6895 19.7484C19.4853 16.0142 23.2811 15.1571 25.7299 15.7693Z" fill="#FFD700"/>
<path id="Vector_3" d="M9.75114 11.1773C15.7509 12.2792 19.1793 19.4416 14.0367 23.4208C13.9754 23.482 9.81237 26.5428 4.91462 24.1554C3.38408 23.4208 -0.105568 21.2169 0.322985 16.6868C1.42498 11.667 6.69005 10.6263 9.75114 11.1773Z" fill="#FFBCB0"/>
<path id="Vector_4" d="M42.8723 16.015C49.9127 17.6679 51.7494 25.9935 45.9333 29.7278C43.362 31.3806 40.6071 31.0133 40.4846 31.0133C39.4439 30.8909 38.5868 30.7684 37.1175 30.095C36.1991 29.6665 35.5257 28.8095 34.6074 28.3197C34.6074 28.3197 32.0973 26.3608 32.5259 22.1368C33.0156 19.9942 33.8115 18.4025 36.444 16.8721C36.8726 16.6272 37.3623 16.6884 37.7909 16.5048C38.3419 16.3211 38.8316 15.9538 39.3826 15.8926C39.9336 15.7702 41.2193 15.5865 42.8723 16.015Z" fill="#FFBCB0"/>
<path id="Vector_5" d="M16.1794 24.5235C19.3017 25.2581 21.6893 27.4619 22.424 30.2167C22.6689 31.1962 22.6689 31.1962 22.3628 32.7878C22.3016 33.2163 22.424 33.7061 22.2403 34.1346C21.6281 35.7262 20.4649 36.7057 19.669 37.2567C14.8325 40.3788 5.58803 37.3179 6.32269 29.727C7.30224 25.1969 12.0775 23.544 16.1794 24.5235Z" fill="#FFBCB0"/>
<path id="Vector_6" d="M36.4439 2.1189C43.3008 3.71055 45.1986 11.8525 39.6275 15.5255C34.7297 18.77 26.8933 16.1989 26.1587 9.52621C26.526 8.4243 26.3423 7.26115 26.8321 6.22045C27.4443 4.93489 28.5463 3.95542 28.9137 3.71055C31.7911 1.62916 34.6073 1.69038 36.4439 2.1189Z" fill="#FFBCB0"/>
<path id="Vector_7" d="M19.6078 0.159189C26.3422 1.32232 28.791 8.85206 23.7096 12.77C18.6283 16.6879 9.26135 13.2597 9.93478 6.1585C11.2817 0.0979834 17.4038 -0.208115 19.6078 0.159189Z" fill="#FFBCB0"/>
<path id="Vector_8" d="M32.9543 27.5235C39.5663 29.5437 41.0968 37.5019 35.5256 40.8076C29.5259 44.4195 21.1998 39.4609 22.3017 32.9718C23.2201 28.1357 28.6688 26.2379 32.9543 27.5235Z" fill="#FFBCB0"/>
</g>
</svg>
