<svg width="59" height="50" viewBox="0 0 59 50" fill="none" xmlns="http://www.w3.org/2000/svg">
<path d="M12.1448 42.4729C11.8387 39.5956 13.0019 37.2082 14.8386 35.5553C13.9202 36.045 12.9407 36.3511 11.8999 36.596C8.28786 37.2694 2.04325 36.045 0.757591 30.0458C0.267818 24.7198 4.36966 22.0875 6.14509 21.2304C8.47151 20.0673 10.6755 20.0061 12.5122 20.3122C10.247 19.3327 8.41029 17.435 7.79808 14.619C6.87975 5.62003 17.7772 2.00821 23.532 5.74247C24.5116 6.35464 25.8585 7.51777 26.5931 9.41551C26.6544 2.43673 35.6539 -2.46067 42.3271 1.51846C47.3473 4.51811 47.4697 10.7011 43.7964 14.4965C43.9188 14.4353 44.1025 14.3129 44.2249 14.2517C45.9392 13.4558 46.9799 13.3334 48.2044 13.1497C48.3268 13.1497 51.5715 12.7212 54.6326 14.6802C61.4894 19.0266 59.2855 28.8826 50.9593 30.8416C49.0002 31.3313 47.4697 31.1476 46.8575 31.0252C46.6126 31.0252 46.4289 30.9028 46.2453 30.8416C46.5514 31.0252 46.8575 31.1476 47.1636 31.3925C53.7755 35.8001 51.5103 45.4113 43.4291 47.2478C41.2251 47.7375 37.9191 47.7988 34.4907 45.3501C34.0622 45.044 32.7765 43.8808 32.0419 42.4116C31.797 41.9219 31.6745 41.3709 31.6133 40.82C31.6133 44.7379 28.6134 48.6558 23.532 49.5129C20.8995 50.0026 13.6754 49.6353 12.1448 42.4729Z" fill="white"/>
<path d="M30.7562 31.1464C36.3885 29.7996 37.9191 23.2493 33.2663 20.3721C28.8583 17.6173 21.879 20.6782 22.43 26.4327C23.4096 30.8403 27.8787 31.881 30.7562 31.1464Z" fill="#FFD700"/>
<path d="M11.9 36.5343C19.0017 35.2487 23.0423 26.8007 16.9814 22.0257C16.9201 21.9645 11.9612 18.2914 6.20638 21.1687C4.43095 22.0257 0.267895 24.6581 0.81889 29.984C2.04332 36.0446 8.2879 37.2077 11.9 36.5343Z" fill="#AE9AE3"/>
<path d="M50.9594 30.9025C59.2242 28.9435 61.4282 19.0875 54.6326 14.7411C51.6328 12.8433 48.3881 13.2106 48.2044 13.2106C46.98 13.3943 45.9392 13.5167 44.225 14.3125C43.123 14.8635 42.3271 15.843 41.2864 16.4551C41.2864 16.4551 38.3478 18.7814 38.7763 23.8012C39.3273 26.3112 40.3068 28.2089 43.3679 29.9842C43.8577 30.2903 44.4087 30.2291 44.9597 30.4127C45.6331 30.5964 46.1841 31.0249 46.8575 31.1473C47.4697 31.1473 49.0003 31.331 50.9594 30.9025Z" fill="#AE9AE3"/>
<path d="M19.4913 20.8025C23.1646 19.8843 25.9808 17.3131 26.8379 14.0686C27.144 12.9667 27.144 12.9667 26.7766 11.0077C26.6542 10.4568 26.8379 9.90584 26.6542 9.4161C25.9195 7.51836 24.5727 6.35523 23.5931 5.74306C17.8383 2.0088 6.94084 5.68184 7.85917 14.6196C8.96116 20.0067 14.6548 21.9656 19.4913 20.8025Z" fill="#AE9AE3"/>
<path d="M43.4291 47.3082C51.5104 45.4717 53.7756 35.7994 47.1636 31.4529C41.3476 27.5963 32.1031 30.6571 31.246 38.5541C31.6746 39.8397 31.4909 41.2477 32.0419 42.4721C32.7766 43.9413 34.0622 45.1656 34.4908 45.4105C37.9192 47.8592 41.2251 47.798 43.4291 47.3082Z" fill="#AE9AE3"/>
<path d="M23.5319 49.5744C31.4908 48.2276 34.4294 39.2899 28.4297 34.6986C22.43 30.0461 11.3489 34.0864 12.1447 42.4732C13.6753 49.6356 20.8994 50.0029 23.5319 49.5744Z" fill="#AE9AE3"/>
<path d="M39.3271 17.251C47.1023 14.8635 48.9389 5.43601 42.327 1.51811C35.2253 -2.70589 25.4299 3.10976 26.7155 10.8231C27.8175 16.5776 34.2458 18.7814 39.3271 17.251Z" fill="#AE9AE3"/>
</svg>
