<svg width="104" height="89" viewBox="0 0 104 89" fill="none" xmlns="http://www.w3.org/2000/svg">
<g id="Group">
<g id="Group_2">
<path id="Vector" d="M20.5795 75.5752C20.0897 70.4942 22.11 66.2702 25.3547 63.2705C23.763 64.1276 22.0488 64.7398 20.1509 65.0458C13.7226 66.209 2.70277 64.1276 0.376358 53.4758C-0.541969 44.0483 6.80463 39.3958 9.98814 37.8653C14.1512 35.8451 18.0694 35.7227 21.2529 36.2737C17.2123 34.4984 13.9675 31.1926 12.9268 26.234C11.335 10.3175 30.6198 3.88966 40.7826 10.4399C42.558 11.5418 44.8844 13.6232 46.2313 16.9902C46.2925 4.62427 62.2713 -4.00737 74.0871 3.03263C82.9642 8.35854 83.2091 19.3164 76.7196 26.0504C76.9645 25.8667 77.2094 25.7443 77.5155 25.6218C80.5766 24.2138 82.352 23.969 84.556 23.6629C84.8009 23.6017 90.5557 22.9283 95.882 26.3564C108.004 34.1311 104.086 51.5168 89.3925 55.0062C85.9641 55.802 83.2703 55.4959 82.1071 55.3735C81.7398 55.3123 81.3725 55.1898 81.0051 55.0674C81.5561 55.3735 82.1071 55.6796 82.6581 55.9857C94.4126 63.7603 90.4332 80.8399 76.0462 84.0844C72.1892 84.9415 66.2508 85.1251 60.1898 80.7175C59.4552 80.1665 57.1287 78.0851 55.8431 75.4528C55.4145 74.5345 55.2308 73.6163 55.1084 72.6368C55.1084 79.5544 49.7821 86.4719 40.8438 88.0636C36.0685 88.9818 23.2732 88.3085 20.5795 75.5752Z" fill="white"/>
</g>
<path id="Vector_2" d="M53.5795 55.5574C63.5586 53.1699 66.2524 41.5386 58.0487 36.4576C50.2736 31.6214 37.8456 37.0698 38.8864 47.2319C40.5393 55.0065 48.4981 56.7818 53.5795 55.5574Z" fill="#FFBCB0"/>
<path id="Vector_3" d="M20.2138 65.1064C32.8255 62.7802 39.9884 47.7819 29.2134 39.3952C29.1522 39.3339 20.3363 32.8449 10.0511 37.8647C6.86754 39.4564 -0.417831 44.0477 0.43927 53.4751C2.76569 64.1882 13.7856 66.2696 20.2138 65.1064Z" fill="#AE9AE3"/>
<path id="Vector_4" d="M89.4556 55.068C104.149 51.5786 108.067 34.1317 95.9451 26.4183C90.6188 22.9901 84.864 23.6635 84.6191 23.7247C82.4151 24.0308 80.6397 24.2145 77.5786 25.6837C75.6195 26.6019 74.2114 28.3772 72.3748 29.4792C72.3135 29.5404 67.1097 33.5807 67.9668 42.4572C68.9463 46.8649 70.6606 50.2931 76.1093 53.4764C76.9664 53.9661 78.0072 53.9049 78.8643 54.211C80.0275 54.5783 81.007 55.3129 82.2315 55.4965C83.2722 55.5578 85.966 55.9251 89.4556 55.068Z" fill="#AE9AE3"/>
<path id="Vector_5" d="M33.6217 37.1916C40.1112 35.5999 45.1313 31.0086 46.6618 25.1929C47.2128 23.1728 47.2128 23.1728 46.4782 19.8058C46.2945 18.8876 46.6006 17.9081 46.2333 16.9898C44.8864 13.6229 42.56 11.6027 40.7846 10.4395C30.6219 3.88928 11.2759 10.3171 12.9289 26.2336C15.0104 35.7836 25.0507 39.2729 33.6217 37.1916Z" fill="#AE9AE3"/>
<path id="Vector_6" d="M76.048 84.2071C90.4351 80.9626 94.4145 63.8217 82.66 56.1083C72.3747 49.3132 56.0286 54.6391 54.4368 68.6579C55.1715 70.9229 54.8654 73.4328 55.9062 75.6367C57.1306 78.269 59.5182 80.3504 60.2529 80.9014C66.2526 85.1866 72.1911 85.0641 76.048 84.2071Z" fill="#AE9AE3"/>
<path id="Vector_7" d="M40.7845 88.1865C54.8655 85.7378 60.0693 69.9437 49.4167 61.8018C38.7642 53.5987 19.112 60.6999 20.5814 75.5758C23.2751 88.309 36.0704 88.9824 40.7845 88.1865Z" fill="#AE9AE3"/>
<path id="Vector_8" d="M68.7628 30.8865C82.5377 26.6625 85.7824 9.95018 74.0891 3.0326C61.4774 -4.49714 44.1518 5.8486 46.417 19.5001C48.3761 29.6622 59.7633 33.6413 68.7628 30.8865Z" fill="#AE9AE3"/>
</g>
</svg>
