<svg width="109" height="94" viewBox="0 0 109 94" fill="none" xmlns="http://www.w3.org/2000/svg">
<g id="Group">
<g id="Group_2">
<path id="Vector" d="M22.1305 79.7892C21.6408 74.4021 23.7223 69.9944 27.1507 66.8724C25.4977 67.7294 23.6611 68.4028 21.702 68.7701C14.9676 69.9944 3.33549 67.7906 0.886635 56.5878C-0.0929108 46.6706 7.62101 41.7732 10.9882 40.1204C15.3349 37.9778 19.498 37.8553 22.8652 38.4063C18.5797 36.5698 15.2125 33.0192 14.0493 27.8157C12.3351 11.0421 32.7218 4.30819 43.3744 11.2258C45.2111 12.3889 47.7212 14.5927 49.1292 18.1433C49.1905 5.10401 65.9652 -3.95614 78.4544 3.45116C87.8213 9.02194 88.0662 20.592 81.2094 27.6932C81.4543 27.5096 81.7604 27.3871 82.0665 27.2647C85.3112 25.7343 87.1479 25.5506 89.4743 25.2445C89.7192 25.1833 95.7801 24.5099 101.413 28.0605C114.208 36.2024 110.045 54.5676 94.6169 58.2407C91.0048 59.0977 88.1274 58.7304 86.9642 58.608C86.5356 58.5468 86.1683 58.4244 85.801 58.3019C86.4132 58.608 86.9642 58.9141 87.5152 59.2814C99.882 67.4233 95.6577 85.4212 80.5359 88.8494C76.4341 89.7676 70.2507 89.9513 63.8836 85.36C63.0878 84.8091 60.6389 82.6052 59.292 79.8505C58.8635 78.9322 58.6186 77.8915 58.4961 76.912C58.4961 84.1969 52.8638 91.4817 43.4356 93.1346C38.4155 93.9304 24.9467 93.257 22.1305 79.7892Z" fill="white"/>
</g>
<path id="Vector_2" d="M56.7819 58.7305C67.2508 56.2206 70.1282 43.9771 61.4959 38.59C53.2922 33.5089 40.252 39.2022 41.2928 49.9152C43.0682 58.1796 51.4556 60.0773 56.7819 58.7305Z" fill="#FFD700"/>
<path id="Vector_3" d="M21.6406 68.7693C34.8645 66.3206 42.3948 50.5878 31.0688 41.7112C31.0076 41.65 21.7018 34.7937 10.9268 40.1196C7.55962 41.7725 -0.0930901 46.6699 0.825233 56.5871C3.33532 67.7899 14.9062 70.0549 21.6406 68.7693Z" fill="#D5C7F4"/>
<path id="Vector_4" d="M94.5557 58.2412C109.984 54.5682 114.147 36.2642 101.351 28.0611C95.7189 24.4493 89.658 25.1839 89.4131 25.2451C87.0867 25.5512 85.25 25.796 82.0053 27.2653C79.9238 28.2447 78.4544 30.1425 76.4954 31.2444C76.4341 31.3056 70.9854 35.5296 71.8425 44.8959C72.8833 49.5484 74.6587 53.099 80.4135 56.466C81.3318 57.0169 82.3726 56.8945 83.3522 57.2006C84.5766 57.5679 85.6174 58.3637 86.903 58.5473C88.0662 58.7922 90.8824 59.0983 94.5557 58.2412Z" fill="#D5C7F4"/>
<path id="Vector_5" d="M35.7829 39.4466C42.6397 37.7937 47.8435 32.9575 49.4965 26.8357C50.0475 24.7544 50.0475 24.7544 49.3129 21.1425C49.1292 20.163 49.4353 19.1223 49.0068 18.1429C47.5987 14.5922 45.0886 12.4496 43.2519 11.2253C32.5382 4.30771 12.2125 11.1029 13.9268 27.8153C16.192 37.9161 26.7833 41.6504 35.7829 39.4466Z" fill="#D5C7F4"/>
<path id="Vector_6" d="M80.4746 88.8502C95.5963 85.422 99.8206 67.4241 87.4538 59.2821C76.6176 52.1197 59.4143 57.7517 57.7001 72.5051C58.496 74.8926 58.1286 77.525 59.2306 79.8512C60.5775 82.606 63.0264 84.8099 63.8223 85.3608C70.1893 89.9521 76.3727 89.8297 80.4746 88.8502Z" fill="#D5C7F4"/>
<path id="Vector_7" d="M43.3744 93.0729C58.19 90.5018 63.6388 73.9118 52.4964 65.2802C41.2928 56.6485 20.6611 64.1171 22.1305 79.7887C24.9467 93.2566 38.4154 93.93 43.3744 93.0729Z" fill="#D5C7F4"/>
<path id="Vector_8" d="M72.7607 32.7738C87.2702 28.3049 90.6374 10.7968 78.3931 3.45071C65.108 -4.44632 46.9252 6.38915 49.3128 20.7752C51.3332 31.4882 63.3326 35.7122 72.7607 32.7738Z" fill="#D5C7F4"/>
</g>
</svg>
