<svg width="59" height="49" viewBox="0 0 59 49" fill="none" xmlns="http://www.w3.org/2000/svg">
<g id="Group">
<g id="Group_2">
<path id="Vector" d="M48.4166 40.3056C48.4166 37.4284 47.0697 35.1633 45.0494 33.6941C45.9677 34.0614 47.0084 34.3063 48.0492 34.4287C51.7225 34.7348 57.7834 32.8983 58.4569 26.8378C58.3957 21.5119 54.0489 19.3081 52.2123 18.6347C49.7634 17.7164 47.5595 17.9001 45.8452 18.3898C47.988 17.1655 49.641 15.1453 49.9471 12.2681C49.9471 3.26912 38.7435 0.759203 33.4173 5.04442C32.4989 5.77903 31.2745 7.06459 30.7235 9.02354C29.9888 2.10598 20.5607 -1.81192 14.3161 2.77938C9.66328 6.26877 10.153 12.3905 14.1937 15.8187C14.0712 15.7575 13.8876 15.6962 13.7039 15.635C11.9285 15.0228 10.8877 14.9616 9.66326 14.9616C9.54082 14.9616 6.29609 14.9004 3.4799 17.1042C-2.88715 22.1241 0.296356 31.674 8.74494 32.7759C10.704 33.0207 12.2346 32.7147 12.8468 32.531C13.0917 32.4698 13.2753 32.4086 13.459 32.2861C13.1529 32.4698 12.8468 32.6534 12.6019 32.8983C6.47977 37.9181 9.66326 47.2232 17.9282 48.2639C20.1322 48.5087 23.4381 48.2639 26.6217 45.5091C26.989 45.203 28.2134 43.8562 28.7644 42.3258C28.9481 41.7748 29.0093 41.2851 29.0093 40.7341C29.3766 44.5908 32.805 48.2026 37.8864 48.5699C40.519 48.7536 47.6207 47.6517 48.4166 40.3056Z" fill="white"/>
</g>
<path id="Vector_2" d="M28.8257 30.9993C23.1321 30.2035 20.9281 23.8981 25.2136 20.5312C29.3155 17.3479 36.5396 19.7354 36.5396 25.4898C36.1111 29.9586 31.7644 31.4278 28.8257 30.9993Z" fill="#FFBCB0"/>
<path id="Vector_3" d="M48.0494 34.4284C40.8864 33.8775 35.9887 25.858 41.5599 20.5321C41.6211 20.4709 46.1515 16.3693 52.2124 18.5731C54.1103 19.2465 58.457 21.4504 58.457 26.7763C57.7836 32.9592 51.7227 34.7345 48.0494 34.4284Z" fill="#FFD700"/>
<path id="Vector_4" d="M8.68389 32.7746C0.235308 31.6727 -2.9482 22.1228 3.41885 17.103C6.23504 14.8992 9.47977 14.9604 9.60222 14.9604C10.8879 15.0216 11.8674 15.0216 13.6428 15.6338C14.806 16.0623 15.6632 16.9806 16.7652 17.4703C16.8264 17.4703 19.9487 19.4905 19.9487 24.5103C19.6426 27.0202 18.9079 29.0404 16.0305 31.1218C15.6019 31.4279 14.9897 31.4891 14.4999 31.6727C13.8877 31.9176 13.3367 32.4073 12.6633 32.591C12.1735 32.7134 10.7042 33.0195 8.68389 32.7746Z" fill="#FFD700"/>
<path id="Vector_5" d="M38.9273 19.6131C35.1927 19.0621 32.1317 16.7971 30.9684 13.675C30.5399 12.5731 30.5399 12.5731 30.7235 10.6141C30.7848 10.0632 30.5399 9.57342 30.7235 9.02246C31.2745 7.0635 32.499 5.77794 33.4173 5.04333C38.7436 0.758108 49.9472 3.26802 49.9472 12.267C49.2737 17.7153 43.825 20.2865 38.9273 19.6131Z" fill="#FFD700"/>
<path id="Vector_6" d="M17.8671 48.3231C9.66339 47.2824 6.41863 37.9774 12.5408 32.9575C17.9283 28.5499 27.3564 30.6313 29.0706 38.4059C28.7645 39.6914 29.1318 41.0994 28.6421 42.385C28.0911 43.9154 26.8666 45.2622 26.4993 45.5683C23.377 48.3231 20.0711 48.568 17.8671 48.3231Z" fill="#FFD700"/>
<path id="Vector_7" d="M37.8252 48.5695C29.8052 48.0185 26.0095 39.4481 31.4582 34.2446C36.9681 29.0412 48.3553 31.9184 48.4165 40.3052C47.6206 47.6512 40.5189 48.7532 37.8252 48.5695Z" fill="#FFD700"/>
<path id="Vector_8" d="M18.9078 18.0827C10.949 16.491 8.19409 7.36963 14.3162 2.77832C20.9281 -2.11907 31.2133 2.65589 30.7236 10.4305C30.2338 16.1849 24.1117 19.0622 18.9078 18.0827Z" fill="#FFD700"/>
</g>
</svg>
