<svg width="66" height="57" viewBox="0 0 66 57" fill="none" xmlns="http://www.w3.org/2000/svg">
<path d="M13.3417 47.7947C13.0356 44.5502 14.3212 41.8567 16.3415 40.0201C15.362 40.5711 14.26 40.9384 13.0356 41.1833C8.93372 41.9179 1.95448 40.5711 0.485161 33.8372C-0.065834 27.8379 4.52576 24.8995 6.6073 23.92C9.23983 22.6344 11.7499 22.512 13.7702 22.8793C11.1989 21.7774 9.11738 19.6348 8.44394 16.5127C7.40318 6.41185 19.7087 2.31027 26.137 6.47305C27.239 7.20766 28.7695 8.49321 29.6266 10.6358C29.6878 2.73878 39.7894 -2.70956 47.3196 1.75931C52.952 5.12626 53.1357 12.1051 48.9726 16.3903C49.1563 16.2678 49.2787 16.2066 49.4624 16.1454C51.4215 15.2271 52.5235 15.1047 53.9316 14.921C54.1153 14.921 57.7273 14.4925 61.1557 16.6351C68.8696 21.5937 66.3596 32.6129 57.0539 34.8779C54.8499 35.4289 53.1357 35.184 52.4011 35.1227C52.1562 35.1227 51.9113 35.0003 51.6664 34.9391C52.0337 35.1228 52.3398 35.3064 52.7072 35.5513C60.1762 40.5099 57.6049 51.3454 48.4829 53.4267C46.034 53.9777 42.2995 54.1001 38.4425 51.2841C37.9527 50.9781 36.4834 49.6313 35.6875 47.9784C35.4427 47.4274 35.3202 46.8153 35.1978 46.2031C35.1978 50.6108 31.8306 55.0184 26.137 55.9979C23.1983 56.304 15.0559 55.8754 13.3417 47.7947Z" fill="white"/>
<path d="M34.2814 35.0618C40.5872 33.5314 42.3627 26.1241 37.0976 22.9408C32.1386 19.8799 24.3023 23.308 24.9145 29.7971C26.0165 34.7557 31.0367 35.8576 34.2814 35.0618Z" fill="#FFBCB0"/>
<path d="M13.0988 41.1222C21.1188 39.653 25.6492 30.1031 18.7924 24.7772C18.7311 24.716 13.16 20.6144 6.60926 23.7977C4.58895 24.7772 -0.0638809 27.7156 0.487114 33.7149C2.01766 40.5713 8.99691 41.8568 13.0988 41.1222Z" fill="#FFD700"/>
<path d="M57.1172 34.7552C66.4228 32.5514 68.9329 21.471 61.219 16.5124C57.7906 14.3698 54.1786 14.7983 53.9949 14.7983C52.5868 14.9819 51.4848 15.1044 49.5257 16.0226C48.2401 16.6348 47.383 17.7367 46.2198 18.4101C46.1586 18.4101 42.9138 21.0425 43.4036 26.6745C44.0158 29.4905 45.1178 31.6331 48.6074 33.6533C49.1584 33.9594 49.7706 33.8981 50.3828 34.0818C51.1175 34.3266 51.7297 34.8164 52.5256 34.8776C53.199 35.0613 54.9132 35.3061 57.1172 34.7552Z" fill="#FFD700"/>
<path d="M21.6085 23.4297C25.7103 22.389 28.8939 19.5117 29.8734 15.8387C30.2407 14.5531 30.2408 14.5531 29.751 12.4105C29.6285 11.7983 29.8122 11.1861 29.5673 10.6352C28.7102 8.49255 27.2409 7.20699 26.0777 6.47238C19.5882 2.30958 7.34382 6.41118 8.38459 16.5121C9.79268 22.5114 16.1597 24.7152 21.6085 23.4297Z" fill="#FFD700"/>
<path d="M48.6072 53.2426C57.7292 51.1613 60.3005 40.3258 52.8315 35.3671C46.2808 31.0207 35.8731 34.4489 34.8936 43.3866C35.3833 44.8558 35.1385 46.3863 35.8119 47.7943C36.6078 49.4471 38.1383 50.7939 38.5669 51.1C42.3626 53.916 46.0971 53.8548 48.6072 53.2426Z" fill="#FFD700"/>
<path d="M26.2002 55.8149C35.1386 54.2845 38.4445 44.2448 31.7101 39.0414C24.9145 33.8379 12.4865 38.368 13.4049 47.7954C15.0579 55.8761 23.2003 56.3047 26.2002 55.8149Z" fill="#FFD700"/>
<path d="M43.9546 19.3893C52.7093 16.6957 54.7296 6.10513 47.3218 1.69748C39.3018 -3.07747 28.2819 3.47277 29.7512 12.1656C30.9757 18.5934 38.1998 21.1646 43.9546 19.3893Z" fill="#FFD700"/>
</svg>
