<svg width="54" height="45" viewBox="0 0 54 45" fill="none" xmlns="http://www.w3.org/2000/svg">
<g id="Group">
<g id="Group_2">
<path id="Vector" d="M7.06688 32.4599C7.55666 29.8276 9.14839 28.0523 11.1687 27.0728C10.2504 27.2564 9.33207 27.3177 8.35252 27.2564C4.98534 26.9504 -0.157272 24.318 0.210056 18.686C1.12838 13.9111 5.41387 12.6255 7.1893 12.3194C9.51572 11.8909 11.4748 12.3806 13.0054 13.1152C11.2299 11.646 10.128 9.56461 10.3116 6.93226C11.7809 -1.20965 22.2498 -1.63817 26.3517 3.07557C27.0864 3.8714 27.9434 5.21817 28.1271 7.1159C29.9025 0.994165 39.0858 -1.026 43.9223 4.17748C47.5956 8.09539 46.1263 13.5437 41.9632 15.9924C42.0857 15.9312 42.2693 15.9312 42.3917 15.87C44.1059 15.6251 45.0243 15.7476 46.1875 15.9312C46.3099 15.9312 49.2486 16.421 51.4526 18.8697C56.3503 24.4404 51.9423 32.5211 44.1672 32.1538C42.3305 32.0926 41.0449 31.5416 40.4939 31.2968C40.3102 31.2356 40.1266 31.1131 40.0041 30.9907C40.249 31.2356 40.4939 31.4192 40.6775 31.6641C45.3916 37.1736 40.9837 45.0707 33.3922 44.6422C31.3719 44.5197 28.4332 43.7851 25.9843 40.7243C25.6782 40.357 24.8211 39.0102 24.5763 37.4797C24.515 36.99 24.515 36.5003 24.5763 35.9493C23.5967 39.3775 19.9846 42.0711 15.3318 41.5813C12.8217 41.2752 6.57711 39.1326 7.06688 32.4599Z" fill="white"/>
</g>
<path id="Vector_2" d="M26.2291 27.1958C31.4942 27.4407 34.494 22.0536 31.1881 18.3805C28.0045 14.8911 21.0864 15.8094 20.1681 21.0129C19.862 25.1144 23.5353 27.0734 26.2291 27.1958Z" fill="#FFD700"/>
</g>
</svg>
