<svg width="608" height="708" viewBox="0 0 608 708" fill="none" xmlns="http://www.w3.org/2000/svg">
<path d="M238.065 343.147L317.531 328.087C317.531 328.087 329.775 320.129 373.977 357.104C401.466 380.061 369.998 399.878 429.689 404.653C516.991 411.631 666.333 507.074 582.811 657.315C536.528 740.57 511.742 635.246 450.137 650.519C438.383 654.682 430.669 657.315 429.689 657.315C424.669 657.315 235.494 536.288 235.494 536.288L238.065 343.147Z" fill="#1E1735"/>
<path d="M12.0966 668.822C23.1777 645.988 35.3607 616.787 46.9316 575.894C58.0128 536.592 106.868 540.755 153.58 519.206C200.353 497.658 248.718 485.17 295.002 514.248C350.836 549.264 407.955 555.263 436.668 594.137C440.648 599.585 445.423 609.625 446.525 611.767C451.606 621.868 459.14 651.806 462.384 663.866C446.405 673.232 428.403 662.027 416.404 667.047C283.676 722.693 135.336 718.041 12.0966 668.822Z" fill="#FFBCB0"/>
<path d="M256.86 195.429C254.779 208.101 253.738 220.896 253.677 233.69C253.616 240.118 253.86 246.485 254.228 252.913C254.411 256.096 254.656 259.34 254.962 262.524C255.207 265.768 255.452 269.074 255.636 272.318C256.371 285.419 256.309 298.581 255.575 311.681C255.33 316.15 254.962 320.68 254.534 325.149H245.963C246.514 320.497 247.004 315.783 247.432 311.13C248.473 298.336 248.84 285.48 248.412 272.686C248.289 269.502 248.167 266.319 247.983 263.075C247.8 259.83 247.616 256.586 247.493 253.28C247.249 246.73 247.187 240.179 247.371 233.568C247.738 220.467 249.146 207.367 251.534 194.45C253.983 181.533 257.473 168.861 262.125 156.618L263.901 152.026L265.799 147.496C267.084 144.497 268.37 141.497 269.717 138.558C272.411 132.62 275.349 126.743 278.533 121.05C284.9 109.603 292.185 98.7059 300.634 88.7275C309.021 78.7491 318.572 69.6277 329.102 61.9755C334.367 58.1188 339.877 54.6294 345.632 51.5073L349.978 49.2423C351.448 48.5077 352.917 47.8343 354.386 47.1609C357.386 45.8141 360.325 44.5285 363.386 43.4266C375.508 38.7741 388.242 35.7132 401.16 34.1216C388.303 35.9581 375.691 39.3251 363.753 44.2837C360.753 45.508 357.815 46.8548 354.876 48.2016C353.407 48.9362 351.999 49.6096 350.529 50.4054L346.305 52.7317C340.673 55.915 335.346 59.5268 330.204 63.4447C319.98 71.2805 310.797 80.4631 302.715 90.5028C294.634 100.542 287.716 111.439 281.716 122.826C278.716 128.519 275.961 134.334 273.451 140.273C272.166 143.211 270.941 146.211 269.778 149.21L268.003 153.679L266.35 158.209C262.064 170.269 258.942 182.757 256.86 195.429Z" fill="#9FBC50"/>
<path d="M253.738 301.213L248.045 300.968C252.759 293.438 257.718 286.031 262.86 278.746C276.941 258.789 292.614 239.811 310.062 222.732C327.572 205.652 346.918 190.409 367.978 178.043C389.038 165.677 411.812 156.189 435.505 150.25C438.444 149.577 441.444 148.842 444.382 148.169L453.321 146.21C459.259 144.863 465.136 143.455 471.014 141.741C476.83 140.027 482.585 138.007 488.095 135.497C493.605 132.987 498.87 129.865 503.461 125.825C498.931 129.926 493.666 133.11 488.217 135.742C482.707 138.374 476.952 140.456 471.136 142.292C465.32 144.067 459.382 145.598 453.504 147.006L444.627 149.087C441.689 149.822 438.75 150.557 435.811 151.291C412.363 157.597 389.895 167.33 369.202 179.941C348.509 192.552 329.531 207.917 312.511 225.119C295.491 242.321 280.309 261.299 266.656 281.317C262.126 287.806 257.84 294.479 253.738 301.213Z" fill="#7CA417"/>
<path d="M22.9324 307.946C32.4217 287.438 43.9926 267.726 58.1348 249.912C65.1753 240.974 72.8892 232.526 81.399 224.874C89.9088 217.222 99.1533 210.304 109.438 204.856C114.581 202.162 119.969 199.836 125.601 198.183C131.233 196.53 137.172 195.49 143.233 195.551C144.763 195.551 146.294 195.673 147.763 195.857C149.294 196.041 150.824 196.286 152.232 196.592C155.11 197.204 157.987 197.938 160.865 198.918C166.497 200.816 171.946 203.509 176.843 206.876C186.761 213.61 194.598 223.038 200.414 233.261C206.291 243.484 210.332 254.564 213.27 265.706C216.27 276.909 218.168 288.295 219.454 299.743C220.005 304.64 220.433 309.538 220.739 314.496H209.719C209.536 309.905 209.291 305.375 208.862 300.784C207.944 289.764 206.413 278.807 203.903 268.094C201.393 257.442 197.843 246.974 192.761 237.485C187.68 227.996 181.007 218.263 172.374 212.08C168.089 208.958 163.313 207.611 158.293 205.713C155.783 204.795 153.212 203.999 150.641 203.387C149.294 203.081 148.069 202.836 146.784 202.652C145.498 202.468 144.212 202.346 142.927 202.285C137.723 202.04 132.335 202.775 127.132 204.183C121.928 205.529 116.846 207.55 111.887 209.998C102.031 214.834 92.9087 221.262 84.3989 228.486C75.9503 235.71 68.1139 243.79 60.951 252.361C46.5639 269.502 34.5033 288.663 24.5241 308.803C14.4838 328.944 6.46378 350.125 0.219177 371.796C5.97401 349.88 13.443 328.454 22.9324 307.946Z" fill="#9FBC50"/>
<path d="M15.9531 15.1444C19.6264 19.7357 23.5446 24.2046 27.524 28.551C35.544 37.2439 43.8701 45.5082 52.4411 53.6501C69.5219 69.8727 87.2762 85.4831 105.153 100.849C114.091 108.501 123.152 116.092 132.152 123.683L145.743 135.069C148.008 136.967 150.273 138.865 152.538 140.824C153.64 141.803 154.804 142.844 155.906 143.885C157.008 144.986 158.048 146.027 159.089 147.19C161.171 149.455 163.068 151.904 164.721 154.475C166.436 157.046 167.966 159.679 169.313 162.433C172.068 167.882 174.088 173.636 175.925 179.329C176.843 182.207 177.7 185.023 178.435 187.961C179.231 190.961 179.782 193.96 180.333 196.899C181.313 202.837 182.047 208.714 182.721 214.591C184.068 226.344 185.231 238.098 186.639 249.791C188.047 261.483 189.639 273.114 191.598 284.623C195.087 305.192 199.679 325.516 206.168 345.228H196.251C190.496 325.761 186.455 305.866 183.455 285.909C181.68 274.155 180.333 262.34 179.17 250.586C178.007 238.833 177.027 227.018 175.925 215.325C175.374 209.448 174.762 203.633 173.905 197.939C173.476 195.062 172.986 192.246 172.313 189.553C171.64 186.798 170.844 183.921 170.048 181.166C168.395 175.595 166.558 170.147 164.109 165.005C162.946 162.433 161.538 159.923 160.069 157.536C158.599 155.149 156.885 152.883 155.048 150.741C154.13 149.639 153.151 148.659 152.171 147.619C151.13 146.639 150.151 145.599 149.11 144.619C146.967 142.66 144.763 140.701 142.559 138.742L129.274 127.05C120.397 119.275 111.581 111.439 102.765 103.481C85.1947 87.687 67.869 71.5868 51.1555 54.8745C42.8293 46.4877 34.6257 37.9785 26.7893 29.1019C22.9324 24.6331 19.1366 20.103 15.5246 15.3893C11.9737 10.6755 8.54524 5.77812 5.91272 0.513428C8.79013 5.77812 12.341 10.4919 15.9531 15.1444Z" fill="#7CA417"/>
<path d="M159.518 546.756C148.498 529.064 168.273 519.637 153.702 482.6C148.927 470.479 136.866 455.175 121.683 444.768C110.296 436.993 103.99 438.891 101.296 433.136C92.3579 413.975 133.989 370.021 139.131 366.226C162.518 348.963 197.414 336.474 223.495 334.148C227.658 333.781 270.635 330.414 281.716 351.595C288.267 364.206 278.778 377.796 267.146 406.874C257.35 431.422 261.085 459.46 272.962 485.416C279.574 499.863 294.512 511.617 304.552 523.493C313.919 534.574 306.94 554.592 273.145 564.08C235.984 574.549 178.619 577.426 159.518 546.756Z" fill="#F2A878"/>
<path d="M62.3595 336.23C63.0942 334.883 64.8696 332.312 64.8696 328.762C64.8696 324.782 62.6656 319.457 62.3595 318.844C57.0332 307.458 61.4412 276.237 73.3182 246.547H309.45C313.858 255.484 317.041 265.463 318.143 276.604C318.756 282.849 322.551 307.642 308.225 328.762C261.024 398.304 208.74 310.886 192.333 316.334C185.905 318.477 184.741 336.781 182.415 373.45C180.885 397.876 182.231 403.998 177.456 415.69C169.497 435.219 150.947 445.87 144.335 450.462C144.335 450.462 119.234 467.97 92.1744 465.338C86.4196 464.787 82.5626 463.134 79.7464 460.379C75.8282 456.461 75.6446 451.258 74.7875 447.952C68.6041 424.383 63.5839 416.915 59.9106 395.795C59.4821 393.223 58.6862 389.612 57.4006 388.326C53.9109 384.837 48.952 385.082 44.9726 383.367C36.2791 379.633 43.8094 367.941 44.9726 365.982C48.7071 359.799 53.666 352.33 62.3595 336.23Z" fill="#FFB383"/>
<path d="M376.426 388.937C371.528 443.666 279.022 452.42 277.002 380.918C275.043 309.355 384.324 301.091 376.426 388.937Z" fill="#1E1735"/>
<path d="M83.7258 246.546C83.9095 246.975 84.0319 247.465 84.2156 247.893C87.5216 256.464 92.7866 264.116 98.7864 271.095C110.908 285.175 126.091 295.949 141.519 307.09C149.172 312.784 156.763 318.783 163.681 325.639C170.477 332.618 176.721 340.27 181.374 348.841C183.823 353.065 185.843 357.472 187.68 362.002C189.394 366.533 190.986 371.124 192.149 375.776C194.537 385.081 196.067 394.57 196.557 404.059C192.21 385.571 186.272 367.512 176.232 352.024C171.211 344.311 165.334 337.209 158.6 330.904C151.927 324.537 144.58 318.844 136.927 313.273C129.397 307.58 121.622 302.071 114.275 295.765C106.99 289.46 100.072 282.603 94.1947 274.829C88.2562 267.115 83.2973 258.484 80.6647 248.995C80.4199 248.138 80.2362 247.342 80.0525 246.485H83.7258V246.546Z" fill="#1E1735"/>
<path d="M303.389 348.411C305.47 345.411 307.735 342.657 309.817 339.841C311.96 337.025 313.919 334.147 315.694 331.086C322.735 319.027 326.286 305.253 327.02 291.479C327.694 277.644 325.918 263.564 321.204 250.769C320.714 249.361 320.163 247.953 319.612 246.606H327.51C327.694 247.157 327.939 247.77 328.122 248.382C332.836 262.523 334.489 277.338 333.081 291.969C332.408 299.253 331 306.538 328.612 313.517C326.224 320.435 323.041 327.169 318.939 333.229C314.837 339.29 309.695 344.493 305.164 349.819C302.899 352.513 300.879 355.39 299.348 358.573C297.756 361.695 296.716 365.123 295.92 368.613C296.348 365.062 297.022 361.511 298.307 358.145C299.471 354.594 301.307 351.411 303.389 348.411Z" fill="#1E1735"/>
<path d="M318.633 246.547C320.469 251.322 322.061 256.341 323.102 261.729C324.204 267.116 330.387 297.786 315.633 326.313C305.654 345.535 293.961 348.78 290.777 368.492C289.246 378.225 290.348 388.265 283.308 400.753C280.492 405.773 277.92 410.12 273.39 413.18C251.044 428.056 225.27 408.956 208.801 388.326C196.985 373.512 197.843 372.654 196.373 365.982C193.741 354.167 195.884 358.391 193.863 352.575C185.904 328.945 149.171 311.927 111.949 281.563C97.3167 269.626 89.3579 258.484 84.6438 246.791C84.5826 246.73 84.5826 246.608 84.5214 246.547H318.633Z" fill="#1E1735"/>
<path d="M406.669 238.22C402.506 239.995 393.752 232.894 391.793 230.935C385.303 224.323 380.161 214.222 375.079 202.652C365.1 201.673 359.406 205.04 351.019 205.897C334.428 207.55 335.959 200.877 336.142 200.326C338.958 192.184 359.713 189.307 370.243 191.327C367.549 184.899 364.733 178.288 361.733 171.676C360.998 170.146 360.141 168.615 359.223 167.146C358.488 167.024 357.692 166.901 356.835 166.84C333.326 164.942 326.469 173.696 312.449 178.227C290.838 185.205 290.899 175.9 291.022 175.104C292.491 163.167 320.714 153.066 335.04 153.311C337.489 153.372 342.326 153.434 347.774 154.658C316.123 128.885 250.738 122.151 249.575 171.064C249.33 182.267 238.188 175.104 226.739 186.797C217.005 196.714 220.189 213.059 220.984 218.324C225.025 244.77 248.044 270.114 276.574 279.235C303.756 287.928 334.428 281.317 353.529 267.971C360.202 263.319 378.63 243.484 387.385 244.096C397.976 244.77 404.098 243.056 407.527 241.464C410.282 239.995 409.669 236.934 406.669 238.22ZM368.896 214.59C368.835 214.957 368.528 215.324 366.998 215.875C365.712 216.365 357.815 219.181 351.876 214.59C350.835 213.794 349.795 212.998 349.917 212.08C350.162 210.243 355.305 209.08 359.529 209.57C364.427 210.121 369.202 212.937 368.896 214.59Z" fill="#9FBC50"/>
<path d="M169.803 321.966C216.393 363.716 180.333 430.933 243.085 463.133C280.859 482.478 255.881 512.658 314.592 532.798C469.85 585.935 360.264 433.81 338.897 411.465C305.899 376.816 132.703 288.724 169.803 321.966Z" fill="#1E1735"/>
<path d="M166.987 332.679C169.619 327.169 172.803 322.701 178.007 320.497C178.986 320.068 184.19 317.864 189.578 319.946C196.312 322.517 199.128 329.863 200.108 333.72C206.781 360.227 195.21 379.571 183.639 389.489C182.292 390.652 173.721 396.651 167.048 388.938C156.457 376.572 159.028 349.391 166.987 332.679Z" fill="#EB9E6C"/>
<path d="M240.514 297.479C240.82 299.132 244.861 300.356 245.902 300.54C249.33 301.152 253.493 300.601 258.146 299.744C260.534 302.621 260.717 305.07 262.187 307.886C265.187 313.334 266.901 311.498 267.023 311.314C268.921 308.743 265.431 301.703 262.615 298.887C265.187 298.397 267.819 297.846 270.513 297.357C271.125 297.234 271.799 297.173 272.472 297.173C272.656 297.357 272.901 297.601 273.084 297.846C278.594 304.703 277.37 308.682 278.9 313.946C281.288 322.088 284.165 320.129 284.349 319.946C287.716 316.946 284.9 306.111 281.839 301.764C281.288 301.03 280.247 299.56 278.717 298.091C293.349 302.438 309.205 321.231 294.328 331.883C290.9 334.332 295.491 336.23 294.267 342.229C293.226 347.31 287.532 349.759 285.757 350.616C276.757 354.901 264.023 353.187 255.208 346.269C246.759 339.719 242.351 328.822 242.473 320.129C242.535 317.068 244.739 307.213 242.718 304.641C240.269 301.519 239.535 299.254 239.29 297.846C239.229 296.744 240.331 296.255 240.514 297.479ZM255.82 304.152C255.697 304.274 255.697 304.397 255.82 305.009C255.942 305.498 256.738 308.559 259.371 309.416C259.799 309.539 260.289 309.722 260.534 309.478C261.024 308.988 260.35 307.213 259.309 305.988C258.146 304.58 256.248 303.723 255.82 304.152Z" fill="#7CA417"/>
</svg>
