<svg width="96" height="57" viewBox="0 0 96 57" fill="none" xmlns="http://www.w3.org/2000/svg">
<path d="M8.72979 5.23193V13.962C8.72979 37.4086 25.4417 56.6148 45.7704 56.6148H50.0107C70.3394 56.6148 87.0513 37.4086 87.0513 13.962V5.23193H8.72979Z" fill="#ECC742"/>
<path d="M95.9062 19.8237H0.623314V21.1956H95.9062V19.8237Z" fill="white"/>
<path d="M95.9062 41.0253H0.62336V42.3971H95.9062V41.0253Z" fill="white"/>
<path opacity="0.1" d="M70.963 5.23193V13.962C70.963 37.1592 65.4755 56.2407 45.2716 56.6148C45.521 56.6148 45.6457 56.6148 45.8952 56.6148H50.1355C70.4642 56.6148 87.1761 37.4086 87.1761 13.962V5.23193H70.963Z" fill="#482C80"/>
<path d="M90.7928 0.992065H5.23772V9.47274H90.7928V0.992065Z" fill="#D4A000"/>
</svg>
