<svg width="174" height="158" viewBox="0 0 174 158" fill="none" xmlns="http://www.w3.org/2000/svg">
<path d="M171.015 146.697C166.362 146.82 160.729 136.78 159.627 134.148C155.954 125.394 154.852 113.824 154.301 100.907C145.179 96.2543 138.506 97.295 130.18 94.9076C113.772 90.1938 117.69 84.4394 118.058 84.0108C123.813 77.3381 144.689 82.358 153.934 88.2961C153.75 81.1948 153.628 73.7875 153.199 66.3802C153.077 64.6661 152.832 62.8909 152.526 61.1156C151.852 60.687 151.179 60.3197 150.383 59.8912C128.71 49.3006 118.854 55.055 103.793 54.0756C80.5902 52.5451 84.141 43.7298 84.5084 43.0564C90.4469 32.221 121.119 33.2616 134.649 38.8324C136.975 39.8119 141.506 41.7096 146.281 44.893C125.833 8.4074 66.0194 -22.5686 46.551 23.5893C42.0818 34.1799 34.1842 23.1608 18.8788 29.9559C5.83859 35.7103 2.77753 52.5451 1.55309 57.8098C-4.50784 84.5006 7.8589 117.374 31.5517 136.78C54.2037 155.329 85.8552 160.533 109.119 154.962C117.201 153.003 142.24 141.065 150.383 144.922C160.24 149.575 166.668 150.187 170.525 150.003C173.769 149.758 174.32 146.636 171.015 146.697ZM143.955 109.967C143.771 110.273 143.342 110.518 141.689 110.457C140.281 110.457 131.71 110.151 127.792 103.539C127.119 102.437 126.384 101.213 126.874 100.417C127.792 98.7643 133.118 99.5601 136.975 101.641C141.322 104.029 144.873 108.559 143.955 109.967Z" fill="#7CA417"/>
</svg>
