<svg width="124" height="164" viewBox="0 0 124 164" fill="none" xmlns="http://www.w3.org/2000/svg">
<path d="M68.6191 3.13249C66.0478 6.00971 69.3538 14.8862 70.4558 17.0288C74.0066 24.0076 80.6798 30.864 88.5774 38.0876C86.6183 46.352 82.394 49.9638 79.4554 56.4528C73.6393 69.3085 79.3942 69.8595 79.8839 69.8595C87.1693 69.7982 95.1281 53.9429 96.3526 45.0052C100.761 48.9231 105.291 52.9022 109.76 57.1875C110.801 58.1669 111.78 59.2688 112.699 60.432C112.576 61.0442 112.515 61.7175 112.331 62.4522C107.434 81.7356 98.5566 84.8577 91.1487 94.8362C79.7003 110.263 87.1693 112.712 87.7815 112.834C97.7607 114.915 113.495 95.0198 117.168 83.5722C117.78 81.6132 119.066 77.7565 119.556 73.0428C131.616 105.366 119.249 159.543 79.8227 147.177C70.7619 144.361 73.5169 155.197 61.0277 161.196C50.4363 166.277 38.192 159.298 34.2126 157.217C14.1931 146.81 0.11216 121.466 0.540718 96.2442C0.969269 72.1245 14.5604 49.4128 30.4781 37.7203C35.988 33.68 56.8646 24.3137 58.7625 17.1513C61.0889 8.4584 64.15 4.05075 66.354 1.7857C68.1294 -0.234471 70.4558 1.11231 68.6191 3.13249Z" fill="#7CA417"/>
</svg>
