<svg width="186" height="220" viewBox="0 0 186 220" fill="none" xmlns="http://www.w3.org/2000/svg">
<path d="M178.554 63.601C167.901 37.2775 146.351 18.9123 124.066 11.8723C118.189 10.0357 108.149 6.97487 100.619 11.9335C88.8028 19.6469 92.2312 41.1342 87.5171 41.7463C81.6399 42.5422 79.9257 10.4643 61.6816 2.506C48.1516 -3.37087 29.2341 2.68964 18.7653 13.0354C-7.86613 39.4201 -1.92763 90.4142 12.7655 122.37C21.3366 141.102 47.1109 184.322 79.9256 192.035C86.4764 193.566 109.557 197.545 115.495 212.543C116.781 215.787 116.597 217.869 118.373 218.848C125.964 222.889 151.8 196.259 166.309 169.507C172.86 157.447 197.9 111.351 178.554 63.601ZM158.167 63.601C157.493 64.2744 146.229 56.2549 123.699 40.1547C120.148 37.6448 116.475 34.9512 117.026 33.482C117.822 31.4006 127.189 32.3801 134.229 35.1961C150.943 41.8076 160.738 61.0911 158.167 63.601Z" fill="#346E00"/>
</svg>
