<svg width="226" height="252" viewBox="0 0 226 252" fill="none" xmlns="http://www.w3.org/2000/svg">
<path d="M175.458 176.191C170.682 141.787 155.071 117.3 154.214 111.606C154.153 111.178 153.54 107.138 155.561 105.852C157.52 104.628 161.132 106.525 162.356 107.75C190.09 135.053 176.07 179.313 183.11 203.8C183.539 203.188 184.029 202.514 184.58 201.841C194.62 188.618 229.516 149.867 224.925 99.6078C224.313 92.7514 220.639 72.9782 206.375 65.5709C187.457 55.7761 176.805 57.1229 154.275 66.4892C144.969 70.3458 153.908 49.7156 146.316 32.5135C145.582 30.8607 136.521 11.0874 116.195 3.5577C83.9314 -8.4409 52.5247 21.372 51.1778 22.6575C43.0353 30.6158 38.6886 38.9414 32.7501 50.3278C27.73 59.8777 21.7914 71.509 19.6487 87.2419C17.5059 102.669 21.8527 101.322 19.2202 115.524C16.4652 130.278 10.6492 137.93 14.2612 149.255C14.6898 150.602 15.1796 151.643 15.5469 152.622C21.7915 147.051 30.0564 141.174 39.2396 137.318C43.219 135.604 54.0552 131.012 57.6061 134.93C58.7693 136.216 58.953 138.236 58.6469 139.766C57.3612 145.398 47.7495 147.48 42.362 148.949C30.1789 152.255 21.1793 157.458 14.9347 161.621C11.9348 166.212 5.07797 167.743 1.83322 174.048C-5.57458 188.373 12.9755 212.615 15.0571 215.309C20.0772 221.736 21.6078 221.247 24.6077 226.695C29.8728 236.245 28.8932 244.448 36.1173 249.223C37.7703 250.325 41.26 252.59 40.5865 251.06C39.7294 249.162 39.607 237.286 47.8719 230.674C55.2797 224.736 101.318 241.51 143.561 229.021C145.582 216.839 148.765 196.086 143.745 170.008C141.969 160.886 138.051 144.97 145.582 138.848C147.602 137.195 150.785 136.032 153.54 136.828C162.05 139.277 163.091 158.989 163.458 166.151C164.621 188.373 159.356 210.901 153.724 225.409C162.356 221.736 170.744 216.594 178.396 209.554C179.192 208.82 179.866 208.085 180.539 207.228C179.131 200.616 177.478 190.822 175.458 176.191Z" fill="#7CA417"/>
</svg>
