<svg width="239" height="160" viewBox="0 0 239 160" fill="none" xmlns="http://www.w3.org/2000/svg">
<path d="M129.411 151.818L66.2766 130.054C64.1206 129.322 62.9409 126.963 63.7138 124.766L92.0269 42.715C92.7591 40.559 95.1185 39.3793 97.3152 40.1522L160.45 61.9158C162.606 62.648 163.786 65.0075 163.013 67.2042L134.7 149.255C133.927 151.411 131.567 152.55 129.411 151.818Z" fill="#FFED00"/>
<path d="M72.8668 126.271L65.7072 126.8C64.6902 112.481 63.9173 97.8768 63.3071 84.9813C62.9816 78.2285 62.6562 71.8418 62.3307 66.35C60.6222 37.1827 69.1243 28.762 73.1922 24.7347L73.355 24.572C83.3215 14.6462 95.8508 13.9139 102.4 14.3614C118.794 15.4597 139.703 23.6364 145.724 26.4433C156.626 31.4875 162.728 38.6878 163.908 47.8815C164.966 56.2208 162.281 63.5431 160.653 67.8959C160.491 68.3027 160.369 68.7094 160.247 69.0349L153.494 66.6348C153.616 66.2687 153.779 65.8619 153.941 65.4144C155.406 61.4278 157.643 55.3665 156.789 48.7357C155.935 42.0642 151.338 36.8573 142.714 32.9113C135.513 29.5756 116.069 22.416 101.912 21.4803C96.5424 21.1142 86.3724 21.6837 78.3992 29.6163L78.2365 29.779C74.9008 33.0741 67.9852 39.9489 69.4904 65.9025C69.8158 71.435 70.1412 77.8217 70.4667 84.6152C71.1176 97.47 71.8498 112.033 72.8668 126.271Z" fill="#FFED00"/>
<path d="M132.747 145.96L128.761 140.021C139.704 132.658 150.28 124.888 160.165 116.915C160.776 116.427 161.467 115.857 162.199 115.288C169.4 109.471 181.4 99.7074 197.062 89.7816C202.065 86.6086 208.167 83.0287 216.792 80.9541C223.748 79.2455 231.029 78.8388 238.392 79.7744L237.538 86.8933C231.029 86.0797 224.643 86.4458 218.5 87.951C210.934 89.7816 205.686 92.8732 200.926 95.8835C185.59 105.565 173.793 115.166 166.715 120.902C165.983 121.471 165.291 122.041 164.681 122.569C154.592 130.624 143.853 138.516 132.747 145.96Z" fill="#FFED00"/>
<path d="M98.6576 18.8361C96.3796 15.1342 94.2235 10.6595 88.325 6.02201C87.0233 5.00501 86.3317 4.55755 85.4368 3.94735C82.9553 2.23881 77.6669 1.62861 67.7004 0.896379C66.358 0.815019 64.7308 0.326859 63.2663 1.22181C61.7205 2.15744 62.1273 3.45919 60.3781 5.08638C58.6289 6.75424 57.5712 6.10337 55.6593 7.93395C54.5202 9.07298 53.91 10.2527 53.5846 10.9443C52.6896 12.7748 52.9744 13.385 51.9981 15.8665C51.3065 17.6564 51.1031 17.4123 50.615 18.8361C49.8827 20.8701 50.0455 22.0091 49.7607 24.0024C49.3539 25.8737 35.2787 53.2918 34.2617 55.1224C16.6068 85.9575 5.1758 112.887 0.904441 145.065C0.579003 147.587 -0.112536 154.869 4.4029 158.083C12.132 163.534 21.6917 155.072 23.4816 153.364C39.1026 138.109 41.1773 133.105 45.408 116.955C53.6253 85.8355 57.3678 56.2207 58.7102 51.3392C59.4831 48.5323 60.4594 44.9525 61.5171 42.7558C62.0866 42.0235 62.6562 41.454 63.185 41.2913C63.5918 41.1692 64.202 40.437 66.3987 41.332C68.3513 42.1456 71.3616 43.9761 74.0871 42.1862C77.1788 40.1522 75.9584 37.7115 76.4465 37.2233C76.9347 36.6945 77.6669 37.3454 78.928 36.9792C80.3925 36.5318 81.2061 35.108 81.4501 34.6605C82.0603 33.5215 82.3858 31.935 82.8739 31.2027C83.8909 29.6162 85.5588 30.9587 87.4707 29.0467C91.0099 25.5076 87.308 19.1616 87.6741 18.9582C88.325 18.6327 93.6134 28.1924 98.0881 28.9247C98.4949 29.006 99.0237 29.1688 100.041 28.5179C101.139 27.8263 101.546 27.3382 101.587 26.0771C101.668 23.9211 100.488 21.8057 98.6576 18.8361Z" fill="#F79556"/>
<path d="M70.1819 8.91036C71.9311 8.74764 73.6804 8.95103 75.3889 9.35783C77.0975 9.76462 78.7246 10.4155 80.2705 11.2291C81.8163 12.0427 83.2401 13.1004 84.5418 14.2801C85.8029 15.5004 86.9013 16.8835 87.7148 18.4294C86.2504 17.453 84.8673 16.5174 83.4841 15.6225C82.101 14.7275 80.6773 13.9139 79.2535 13.141C77.8297 12.3681 76.3652 11.6359 74.8601 10.985C73.3549 10.2935 71.8091 9.64259 70.1819 8.91036Z" fill="#D66730"/>
<path d="M65.6664 17.4939C67.5784 17.6566 69.4496 18.1448 71.2802 18.755C73.0701 19.3652 74.86 20.1788 76.5279 21.1144C78.1958 22.0907 79.8229 23.2704 81.1247 24.7756C81.7756 25.5485 82.3451 26.4434 82.6705 27.4198C82.9959 28.3961 83.118 29.3724 83.0366 30.3487C82.6298 29.4537 82.2637 28.5995 81.7349 27.9079C81.206 27.1757 80.5959 26.6062 79.945 25.996C78.5619 24.8976 77.0161 23.9213 75.4702 23.0263C73.8837 22.0907 72.2565 21.2364 70.6293 20.3415C68.9208 19.4058 67.2936 18.5109 65.6664 17.4939Z" fill="#D66730"/>
<path d="M60.6222 27.4604C62.2494 27.6231 63.7952 28.0299 65.3004 28.5181C66.8055 29.0062 68.27 29.6164 69.6937 30.3893C71.1175 31.1622 72.46 32.0165 73.6804 33.1149C74.2905 33.6844 74.8601 34.2946 75.3075 34.9861C75.755 35.6777 76.1618 36.4506 76.2432 37.2642C75.1855 36.0438 73.9244 35.2709 72.6634 34.498C71.3616 33.725 70.0192 33.0335 68.6768 32.3013C67.3343 31.569 65.9512 30.8368 64.6088 30.0639C63.2664 29.291 61.8833 28.4774 60.6222 27.4604Z" fill="#D66730"/>
</svg>
