<svg width="67" height="103" viewBox="0 0 67 103" fill="none" xmlns="http://www.w3.org/2000/svg">
<path d="M23.6475 69.2717C22.3864 63.9426 20.5151 57.2711 18.7252 22.7748C18.5625 19.3984 18.1964 13.2964 21.9389 7.88604C22.6305 6.86905 26.3323 1.53999 33.2885 0.44164C34.5496 0.238242 39.7159 -0.412603 44.1093 2.55701C49.357 6.09614 51.1062 12.6862 51.1876 18.3407C51.5537 42.301 46.0619 62.3561 44.1093 70.1666C42.3194 77.1635 25.2747 76.3499 23.6475 69.2717Z" fill="#9FBC50"/>
<path d="M48.3808 34.6939C50.7809 32.7413 53.3437 34.6125 54.6861 32.3751C55.9879 30.2191 55.0929 27.7376 55.4184 24.6053C55.7031 21.9204 56.5167 20.456 58.2659 19.3983C60.0152 18.3406 65.4662 18.1779 66.4425 24.6053C66.6866 26.3952 66.89 31.3175 64.3272 36.3211C61.9678 40.8772 55.0116 47.1012 48.2995 44.457C45.0044 43.1146 45.1671 37.2974 48.3808 34.6939Z" fill="#9FBC50"/>
<path d="M22.4272 23.1409C20.2711 21.3103 18.6439 26.436 14.4539 22.0832C13.5996 21.229 12.3386 18.9509 13.3962 13.7439C14.2505 9.55388 12.8267 4.75365 7.53836 4.87569C4.44671 4.95705 2.45345 7.31648 1.68054 10.3675C-0.841602 20.7408 4.12131 26.3139 4.52811 26.8834C8.10792 31.9277 15.5929 37.7042 20.1491 35.2228C24.0136 33.1074 24.99 25.3376 22.4272 23.1409Z" fill="#9FBC50"/>
<path d="M27.7562 68.5395C26.4952 66.2208 23.3221 15.4526 29.4647 4.55045C30.0343 3.53346 31.7835 1.45877 34.387 1.01129C37.9261 0.441777 40.8958 3.37072 41.75 4.22499C46.9163 9.30995 46.4282 17.7713 46.1841 22.6529C44.4348 58.2069 43.2145 67.2377 41.2618 69.5972C38.6177 72.8922 29.7088 72.2007 27.7562 68.5395Z" fill="#7CA417"/>
<path d="M32.6783 68.5395C32.4342 67.6039 32.2308 56.7017 32.6783 37.8264C32.8817 30.0973 32.8817 19.3579 33.2885 10.6524C33.4919 6.46244 33.7359 1.29613 36.8276 1.90632C40.0413 2.55719 41.2617 24.3208 41.2617 24.3208C41.5057 58.7357 38.4955 68.2141 37.7226 69.2718C36.9903 70.4515 33.0037 69.9226 32.6783 68.5395Z" fill="#346E00"/>
<path d="M20.7186 26.1918C22.2644 27.2088 21.817 32.4972 18.6846 33.4328C17.1388 33.8803 14.9828 33.148 13.315 31.9276C7.82321 28.0224 5.78924 22.4086 5.54516 21.6764C2.0874 10.4081 6.72484 5.2011 8.71814 5.48586C10.0606 5.68925 10.7521 8.29278 11.0776 9.43181C12.1352 13.4591 10.8335 14.7608 11.3623 18.6254C11.403 19.0322 12.0946 24.646 15.3489 25.663C17.8304 26.4359 19.1321 25.1341 20.7186 26.1918Z" fill="#7CA417"/>
<path d="M11.5656 27.3715C7.82311 23.9951 5.58574 15.5744 7.74174 7.72319C8.06718 6.54348 9.69436 6.50283 9.12485 8.82157C6.84681 17.5677 8.79944 23.7103 13.681 27.0054C16.0404 28.5919 17.1794 28.1851 18.3998 27.8596C19.5795 27.5342 20.393 29.9343 18.6032 30.3004C16.8133 30.6259 13.6403 29.2428 11.5656 27.3715Z" fill="#346E00"/>
<path d="M49.8045 35.711C51.9199 33.677 53.303 36.5653 55.6218 34.0431C60.3 28.7954 56.0286 24.0766 58.1032 21.4324C58.1846 21.3104 59.1202 20.0493 60.6254 19.9679C62.2932 19.8459 63.5543 21.1883 63.7984 21.5138C65.751 24.1579 64.7747 30.382 63.5137 33.8397C61.6017 39.0061 56.6794 41.3248 55.0523 42.057C53.181 42.952 50.252 43.4808 48.9096 42.2604C47.5265 41.04 47.9333 37.5009 49.8045 35.711Z" fill="#7CA417"/>
<path d="M52.1233 37.1348C59.6896 39.2094 62.5372 27.5343 60.5032 22.9782C59.9337 21.7171 61.3575 20.8629 61.7643 22.7341C63.2287 29.8124 60.5032 38.1111 53.7911 40.2264C49.7639 41.5282 50.008 36.5652 52.1233 37.1348Z" fill="#346E00"/>
<path d="M52.2046 61.5831H16.4065C15.3488 61.5831 14.5352 62.4374 14.5352 63.4544V68.0919C14.5352 69.1495 15.3895 69.9631 16.4065 69.9631H17.1794L19.1727 99.3339C19.1727 100.88 20.4337 102.141 21.9796 102.141H46.5095C48.0553 102.141 49.3164 100.88 49.3164 99.3339L51.3097 69.9631H52.0826C53.1402 69.9631 53.9539 69.1089 53.9539 68.0919V63.4544C54.0759 62.3967 53.2623 61.5831 52.2046 61.5831Z" fill="#D78E42"/>
<path d="M51.0249 75.6176L51.4317 69.9225H17.3015L51.0249 75.6176Z" fill="#3E1A4A"/>
</svg>
