<svg width="116" height="178" viewBox="0 0 116 178" fill="none" xmlns="http://www.w3.org/2000/svg">
<path d="M66.0781 111.077C66.0781 111.443 63.3932 116.04 64.9797 115.837C68.1527 115.43 68.0307 107.904 72.7495 100.419C75.353 96.3104 76.5734 95.7816 81.2516 90.9814C88.9807 83.0895 89.0621 80.4861 98.215 65.1091C98.215 65.1091 102.852 57.502 108.995 53.2307C111.639 51.4001 112.168 51.9696 112.412 51.5221C112.494 51.3187 112.575 47.5762 86.0925 66.0041C66.078 79.9165 65.7933 101.192 66.0781 111.077Z" fill="#9FBC50"/>
<path d="M65.0204 115.023C67.6645 116.447 72.3834 111.199 81.7804 102.738C81.7804 102.738 90.1197 95.2119 100.412 88.7438C103.503 86.7912 107.856 84.2691 112.046 85.3267C112.982 85.5708 114.894 86.2217 115.097 85.8556C115.3 85.4488 113.266 84.4318 113.104 84.4318C93.2927 81.5029 78.2819 94.9678 74.7021 98.0187C69.2917 102.575 62.3762 108.351 63.7593 113.07C63.8406 113.518 64.1254 114.535 65.0204 115.023Z" fill="#346E00"/>
<path d="M59.7319 120.149C61.7659 122.101 67.339 118.603 77.9564 113.355C77.9564 113.355 87.3941 108.718 98.2556 105.504C101.51 104.528 106.107 103.389 109.565 105.382C110.337 105.829 111.924 106.928 112.168 106.643C112.453 106.318 110.907 104.894 110.744 104.853C93.6588 97.2054 76.736 105.463 72.7087 107.294C66.6475 110.019 58.9997 113.477 58.9997 118.033C59.0811 118.522 59.0811 119.498 59.7319 120.149Z" fill="#7CA417"/>
<path d="M78.6073 83.3333C85.4415 67.3462 82.6346 67.1835 87.3128 60.2273C90.1603 55.9966 97.5233 46.5996 99.3133 42.5316C99.9641 41.0672 100.9 38.5857 101.795 35.7381C101.835 35.5347 102.039 35.1686 101.957 35.1279C101.754 35.0059 100.9 37.4467 98.5403 40.2942C93.8622 45.786 88.4925 49.081 83.4889 52.4575C74.0105 58.7628 68.9662 67.1428 66.9729 70.3972C64.6949 74.1804 56.7217 87.442 61.8066 96.5542C62.3354 97.4898 64.1254 100.663 66.6882 100.785C67.8272 100.826 71.285 100.419 78.6073 83.3333Z" fill="#346E00"/>
<path d="M55.6233 68.282C54.3622 68.0786 53.0605 67.265 51.5147 65.109C46.5517 58.1121 46.0229 44.5251 50.2129 33.4195C54.4843 22.0699 60.3828 19.4257 62.0914 11.6152C62.0914 11.6152 63.3118 5.96075 66.5661 2.29958C66.6068 2.2589 66.7695 2.09616 67.0136 1.85208C67.9086 0.916452 68.4781 0.306267 68.6001 0.387626C68.8442 0.509665 67.3391 2.42161 66.8102 3.92676C65.1424 8.56424 67.9899 13.9339 68.8442 15.8052C73.1156 24.9581 74.1326 43.0199 68.6001 55.4272C65.9559 61.3258 60.4235 69.0549 55.6233 68.282Z" fill="#346E00"/>
<path d="M60.7897 55.6306C60.6676 48.0642 65.6305 47.4133 74.3767 30.9381C77.1836 25.6497 82.5939 11.9407 87.3535 11.4932C87.8009 11.4525 87.5975 12.0627 87.0687 12.1848C81.699 13.5679 81.6583 30.4093 81.6583 30.4093C81.6176 48.3897 71.2036 67.5091 66.2001 67.265C63.4338 67.0616 60.871 60.919 60.7897 55.6306Z" fill="#346E00"/>
<path d="M53.3453 121.572C50.7011 122.996 45.9823 117.748 36.5853 109.287C36.5853 109.287 28.2459 101.761 17.954 95.2932C14.8623 93.3406 10.5096 90.8184 6.31959 91.8761C5.38396 92.1202 3.47201 92.7711 3.26861 92.405C3.06522 91.9982 5.0992 90.9812 5.26191 90.9812C25.0729 88.0522 40.0837 101.517 43.6635 104.568C49.0739 109.124 55.9894 114.901 54.6063 119.62C54.525 120.108 54.2402 121.125 53.3453 121.572Z" fill="#7CA417"/>
<path d="M36.87 89.883C30.0358 73.8959 32.8427 73.7332 28.1646 66.7769C25.317 62.5462 17.954 53.1492 16.1641 49.0813C15.5132 47.6168 14.5775 45.1353 13.6826 42.2877C13.6419 42.0843 13.4385 41.7182 13.5199 41.6775C13.7233 41.5555 14.5775 43.9963 16.937 46.8439C21.6151 52.3356 26.9849 55.6307 31.9885 59.0071C41.4668 65.3125 46.5111 73.6925 48.5044 76.9469C50.7825 80.7301 58.7557 93.9916 53.6707 103.104C53.1419 104.04 51.352 107.213 48.7892 107.335C47.6501 107.375 44.1924 106.968 36.87 89.883Z" fill="#7CA417"/>
<path d="M47.3246 62.1801C47.4467 54.6136 42.4838 53.9628 33.7377 37.4875C30.9308 32.1991 25.5204 18.4901 20.7609 18.0426C20.3134 18.0019 20.5168 18.6121 21.0456 18.7342C26.4153 20.1173 26.456 36.9587 26.456 36.9587C26.4967 54.9391 36.9107 74.0585 41.9142 73.8145C44.6805 73.6517 47.2433 67.4684 47.3246 62.1801Z" fill="#346E00"/>
<path d="M60.2201 94.9678C53.508 92.4049 51.9622 75.7263 56.9251 63.1563C59.6506 56.2407 63.7999 51.888 66.4441 49.1624C75.4343 39.8875 86.906 35.4127 87.4348 36.2263C87.5976 36.4704 87.2721 35.7382 85.6043 38.7484C83.6516 42.2469 80.56 56.9729 75.7191 74.5466C71.9766 88.0929 70.146 92.6084 65.8339 94.4796C64.8169 94.8457 62.4982 95.822 60.2201 94.9678Z" fill="#7CA417"/>
<path d="M32.9648 19.5071C33.3716 19.1817 35.3242 21.0122 36.0158 21.6631C46.7145 31.589 52.369 42.8979 52.369 42.8979C59.61 57.3392 59.8134 67.5091 59.6913 71.2923C59.5693 75.2382 58.593 78.2892 56.3963 79.835C53.1826 82.1131 49.0739 80.4452 45.8602 78.4519C36.9514 72.9195 33.2902 57.7867 34.8767 45.7862C35.6903 39.5215 36.3412 26.0158 34.3479 22.0699C34.0632 21.5004 32.558 19.8325 32.9648 19.5071Z" fill="#7CA417"/>
<path d="M66.5255 55.3457C65.9966 55.0203 64.044 57.4204 63.3525 58.2747C52.613 71.3328 47.8535 85.1232 47.8535 85.1232C41.7923 102.819 43.094 114.494 43.8262 118.847C44.5585 123.362 46.145 126.698 48.9519 128.162C52.9792 130.278 57.4539 127.715 60.8303 124.949C70.2273 117.26 72.0579 99.3204 68.4374 85.7741C66.5255 78.6958 63.7186 63.3596 65.3865 58.478C65.5899 57.8272 67.0543 55.6712 66.5255 55.3457Z" fill="#9FBC50"/>
<path d="M51.5147 124.176C51.5147 124.583 54.4843 129.871 52.6537 129.627C49.0739 129.098 49.318 120.515 44.111 111.891C41.2227 107.131 39.8803 106.521 34.6326 100.988C25.9679 91.8355 25.9679 88.8659 15.8386 71.1702C15.8386 71.1702 10.713 62.3834 3.83813 57.4205C0.868514 55.2645 0.217642 55.9153 0.0142435 55.4272C-0.107795 55.1831 -0.107792 50.9524 29.6697 72.472C52.1656 88.7032 52.0435 112.948 51.5147 124.176Z" fill="#9FBC50"/>
<path d="M84.7906 115.308H30.2799C28.6934 115.308 27.3916 116.61 27.3916 118.196V125.234C27.3916 126.82 28.6934 128.122 30.2799 128.122H31.4596L34.5105 172.869C34.5105 175.229 36.4225 177.182 38.8226 177.182H76.2072C78.5666 177.182 80.5192 175.27 80.5192 172.869L83.5702 128.122H84.7499C86.3364 128.122 87.6382 126.82 87.6382 125.234V118.196C87.6382 116.61 86.3771 115.308 84.7906 115.308Z" fill="#D78E42"/>
<path d="M83.0007 136.705L83.5702 128.041H31.6223L83.0007 136.705Z" fill="#3E1A4A"/>
</svg>
