<svg width="183" height="292" viewBox="0 0 183 292" fill="none" xmlns="http://www.w3.org/2000/svg">
<path d="M86.2005 212.384C88.3972 210.106 89.2922 206.811 83.475 197.536C71.7999 178.865 45.4395 187.407 41.7783 197.496C41.0054 199.652 43.5275 197.333 44.9513 199.204C52.5177 209.13 80.546 218.283 86.2005 212.384Z" fill="#7CA417"/>
<path d="M52.0298 0.931772C54.2671 -0.329298 52.1111 2.19286 68.505 4.22684C95.4349 7.60325 116.059 45.9235 114.351 74.5213C113.985 80.5825 112.886 99.2138 100.072 107.472C98.4859 108.489 92.506 112.719 85.5091 111.336C14.8486 97.2205 36.124 18.18 50.3619 6.58625C54.1858 3.45392 49.8331 2.15216 52.0298 0.931772Z" fill="#346E00"/>
<path d="M105.117 188.913C95.3536 187.326 95.9638 164.668 103.774 149.128C103.774 149.128 117.809 118.455 158.041 125.615C160.645 126.063 161.906 125.33 161.58 125.981C159.912 129.358 162.434 132.775 157.716 143.189C154.421 150.552 133.633 193.591 105.117 188.913Z" fill="#7CA417"/>
<path d="M105.279 116.787C111.463 120.489 126.148 105.804 150.881 81.0707C150.881 81.0707 162.272 69.6804 176.713 47.8354C182.733 38.7231 182.489 35.4688 182.489 35.4688C179.113 30.6686 152.752 41.0826 132.779 56.907C123.707 64.0666 109.225 75.8637 104.506 95.634C103.53 99.5799 100.113 113.736 105.279 116.787Z" fill="#7CA417"/>
<path d="M82.5801 129.846C77.6172 132.856 71.8 125.167 41.5343 105.112C25.0184 94.1696 12.1636 86.7658 3.90563 70.616C-0.0809758 62.8055 0.529229 60.08 1.42418 58.9003C4.3938 55.0764 31.0797 56.4188 48.7347 65.4497C56.3824 69.355 74.4442 78.5892 82.214 98.7663C86.0786 108.855 89.0075 125.94 82.5801 129.846Z" fill="#7CA417"/>
<path d="M91.6924 121.669C89.7804 111.255 87.5431 100.841 84.9396 90.549C82.3768 80.257 79.4071 70.0465 76.0714 59.9579C72.7763 49.8693 69.0745 39.8621 65.0879 30.0177C61.0606 20.1732 56.7485 10.4507 52.111 0.850342C57.0333 10.288 61.6301 19.9291 65.9015 29.6516C70.1728 39.4147 74.1595 49.2998 77.78 59.3477C81.4004 69.3956 84.6548 79.5655 87.5431 89.8167C90.4313 100.109 92.9534 110.482 95.2315 120.937L91.6924 121.669Z" fill="#7CA417"/>
<path d="M93.9705 198.513C97.9164 191.638 102.025 184.926 106.5 178.377L109.876 173.495L113.415 168.736C113.7 168.329 114.026 167.963 114.31 167.556L115.246 166.376L117.077 164.057C117.687 163.285 118.338 162.512 118.948 161.779L120.86 159.501C126.026 153.521 131.558 147.826 137.498 142.66C143.478 137.494 149.864 132.856 156.617 128.829C149.986 133.1 143.762 137.9 137.986 143.229C132.209 148.558 126.921 154.376 121.999 160.478L120.168 162.796C119.558 163.569 118.948 164.342 118.378 165.115L116.629 167.474L115.775 168.654C115.49 169.061 115.205 169.427 114.921 169.834L111.585 174.675L108.371 179.597C104.181 186.228 100.276 193.021 96.6146 199.937L93.9705 198.513Z" fill="#346E00"/>
<path d="M90.6346 135.256C96.4112 126.754 101.862 118.049 107.557 109.424C113.253 100.841 119.151 92.339 125.619 84.2845C127.206 82.2505 128.874 80.2572 130.541 78.3045C132.209 76.3519 133.918 74.3993 135.667 72.4874L136.969 71.0636L138.311 69.6805C139.206 68.7448 140.142 67.8499 141.037 66.9142C142.908 65.1243 144.779 63.3344 146.691 61.6259C150.556 58.2088 154.542 54.9544 158.651 51.8221C162.76 48.7304 166.99 45.7608 171.343 43.0353C167.031 45.8829 162.922 48.9338 158.854 52.1475C154.827 55.3612 150.922 58.697 147.179 62.1954C139.613 69.1516 132.982 77.0028 126.758 85.1794C120.534 93.356 114.88 101.939 109.429 110.645C103.937 119.35 98.7299 128.218 93.1161 136.883L90.6346 135.256Z" fill="#346E00"/>
<path d="M89.8212 145.629C88.3974 140.87 86.3634 136.232 84.004 131.758C81.6445 127.283 79.0004 122.971 76.1528 118.781C70.417 110.401 63.9082 102.509 56.8706 95.1865C49.7924 87.8642 42.1853 81.0707 33.9273 75.0094C25.71 68.9888 16.9232 63.6598 7.52621 59.5918C17.0046 63.4157 25.9541 68.5413 34.3748 74.3585C42.7955 80.2164 50.6467 86.8878 57.9283 94.0881C65.21 101.288 72.0035 109.099 77.9834 117.438C80.9937 121.628 83.8006 125.94 86.3227 130.456C88.8449 134.971 91.0415 139.69 92.7094 144.694L89.8212 145.629Z" fill="#346E00"/>
<path d="M95.1908 219.422C93.9298 217.714 92.4653 216.127 90.8788 214.622C89.2923 213.117 87.5837 211.693 85.8345 210.391C82.2954 207.706 78.5122 205.347 74.6069 203.272C70.661 201.198 66.5524 199.408 62.3217 197.984C58.091 196.601 53.6569 195.625 49.1821 195.299C53.6976 195.34 58.1724 196.072 62.5251 197.252C66.8778 198.391 71.1491 199.977 75.2578 201.889C79.3664 203.801 83.3531 205.998 87.1363 208.52C89.0482 209.781 90.8788 211.164 92.628 212.629C94.3773 214.093 96.0858 215.72 97.5909 217.551L95.1908 219.422Z" fill="#346E00"/>
<path d="M14.7671 120.245C14.8485 116.869 54.8366 105.438 83.9225 151.325C90.8381 162.267 90.0651 180.817 86.2412 179.271C71.0677 173.129 34.9849 160.274 18.8758 123.296C17.0045 119.025 14.7265 122.035 14.7671 120.245Z" fill="#9FBC50"/>
<path d="M96.2077 108.204C96.0857 111.133 95.8416 113.981 95.6382 116.869L94.9467 125.412C94.7026 128.259 94.4586 131.107 94.2552 133.954C94.0111 136.802 93.7263 139.609 93.3602 142.456C92.0991 157.345 94.0518 173.861 94.4992 176.709C94.7433 178.132 94.9467 179.556 95.1501 180.98C95.3535 182.404 95.5162 183.868 95.6382 185.292C95.923 188.18 96.1671 191.069 96.4111 193.957C96.8586 199.733 97.1841 205.51 97.2247 211.246C97.2654 217.022 97.1434 222.799 96.8586 228.575C96.7773 229.999 96.6959 231.463 96.6145 232.887C96.5332 234.311 96.4112 235.776 96.2891 237.199C96.1671 238.623 96.0044 240.088 95.8823 241.511C95.7196 242.935 95.5569 244.4 95.3128 245.823H94.8246C94.4585 242.935 94.2145 240.047 93.9297 237.199C93.6856 234.311 93.4416 231.464 93.2382 228.575C92.8314 222.839 92.4652 217.104 92.1805 211.368C91.8957 205.632 91.733 199.896 91.611 194.16C91.5296 191.272 91.4889 188.424 91.3669 185.577L91.2449 181.305C91.2042 179.882 91.1635 178.417 91.1635 176.993C91.1228 174.105 91.1228 171.217 91.0822 168.329C91.0415 165.44 90.9195 162.552 90.7974 159.664C90.6754 156.776 90.472 153.887 90.2686 150.999C90.0245 148.111 89.7804 145.182 89.699 142.294C89.455 136.477 90.1465 130.659 91.1635 124.923C92.2212 119.188 93.6449 113.533 95.8416 108.123L96.2077 108.204Z" fill="#7CA417"/>
<path d="M92.5466 192.492C91.4076 188.628 89.7804 184.845 87.9091 181.183C86.0379 177.522 83.9226 173.942 81.6445 170.485C77.1291 163.528 71.9628 156.979 66.3896 150.836C63.5828 147.745 60.6945 144.775 57.6435 141.928C54.5926 139.08 51.4195 136.354 48.1652 133.832C41.5751 128.747 34.4968 124.232 26.8083 120.896C34.5782 123.988 41.8191 128.3 48.6126 133.263C51.989 135.744 55.2841 138.348 58.4164 141.155C61.5487 143.921 64.5997 146.85 67.5286 149.86C73.3458 155.921 78.7562 162.389 83.5564 169.305C85.9565 172.763 88.2346 176.343 90.2686 180.044C92.3026 183.746 94.1332 187.611 95.4756 191.719L92.5466 192.492Z" fill="#7CA417"/>
<path d="M126.107 220.683H63.9895C62.1996 220.683 60.7351 222.148 60.7351 223.938V231.992C60.7351 233.782 62.1996 235.247 63.9895 235.247H65.3726L68.871 286.218C68.871 288.944 71.0677 291.14 73.7933 291.14H116.426C119.151 291.14 121.348 288.944 121.348 286.218L124.846 235.247H126.229C128.019 235.247 129.484 233.782 129.484 231.992V223.938C129.402 222.148 127.938 220.683 126.107 220.683Z" fill="#D78E42"/>
<path d="M124.073 245.051L124.765 235.206H65.5353L124.073 245.051Z" fill="#3E1A4A"/>
</svg>
