<svg width="629" height="427" viewBox="0 0 629 427" fill="none" xmlns="http://www.w3.org/2000/svg">
<path d="M270.846 221.059C270.032 218.781 270.317 218.252 270.846 216.177C271.985 211.784 280.772 209.831 285.206 201.248C288.054 195.797 297.695 197.546 303.39 192.298C307.458 188.556 302.495 186.684 312.624 180.623C328.042 171.389 325.723 161.626 325.113 161.382C324.096 160.975 324.258 163.904 323.079 165.409C317.587 172.406 281.179 159.795 250.425 180.42C237.041 189.369 227.766 201.776 225.285 217.275C223.495 228.625 227.237 234.361 231.265 233.303C236.024 232.042 232.526 235.256 235.536 239.486C247.943 257.141 273.938 229.52 270.846 221.059Z" fill="#7CA417"/>
<path d="M111.667 250.958C126.677 265.399 137.824 254.09 147.424 242.537C149.743 239.771 156.414 249.656 164.55 239.202C177.283 222.726 160.686 199.824 143.315 148.079C141.2 141.733 121.714 95.9685 109.958 76.2795C104.181 66.5977 97.7541 59.8856 92.2623 57.0787C78.3092 49.8784 68.5461 54.4345 67.5291 48.4953C66.7969 44.1426 70.2953 43.1663 68.1393 42.2306C65.4138 41.0509 58.8237 59.2754 60.1661 77.4185C61.2238 91.6564 66.3087 96.9448 71.7598 112.688C77.0888 128.065 75.9905 133.801 79.611 158.9C86.4452 206.495 89.8622 230.008 111.667 250.958Z" fill="#346E00"/>
<path d="M179.724 419.657C180.944 407.046 182.246 394.435 183.914 381.825C185.581 369.214 187.534 356.685 190.016 344.196C192.497 331.748 195.467 319.341 199.087 307.177C202.708 294.974 207.06 283.014 212.267 271.379C217.474 259.786 223.576 248.558 230.817 238.063C238.058 227.608 246.438 217.886 255.957 209.465C265.476 201.044 276.175 193.925 287.687 188.556C289.152 187.905 290.576 187.254 292.04 186.603L296.393 184.732C299.281 183.471 302.169 182.169 304.976 180.704C307.783 179.24 310.509 177.653 313.072 175.823C315.634 173.992 318.034 171.877 319.987 169.355C318.075 171.877 315.716 174.033 313.194 175.945C310.631 177.816 307.905 179.484 305.139 180.989C302.332 182.494 299.485 183.837 296.596 185.179L292.284 187.132C290.86 187.783 289.437 188.474 288.013 189.166C276.663 194.698 266.168 201.939 256.852 210.441C247.537 218.943 239.401 228.666 232.404 239.161C225.407 249.656 219.549 260.843 214.586 272.437C209.623 284.031 205.515 295.95 202.097 308.113C198.68 320.236 195.914 332.562 193.677 344.969C191.399 357.376 189.649 369.865 188.185 382.435C186.721 394.964 185.622 407.575 184.605 420.186L179.724 419.657Z" fill="#346E00"/>
<path d="M102.798 102.396C94.0929 115.902 80.4652 118.871 80.2212 118.465C79.9364 117.936 92.3437 113.258 99.1372 99.752C93.2793 95.9688 86.4045 93.4466 78.3499 92.7957C63.0137 91.5753 68.6275 87.9955 56.0168 83.7648C39.4601 78.1917 32.6666 77.785 29.0462 78.924C23.1883 80.7952 22.9849 75.7916 22.0493 76.7273C21.4391 77.3375 16.4355 89.2159 24.4494 97.4332C28.68 101.745 33.7243 99.9554 39.4602 106.301C42.5111 109.678 42.267 111.956 44.4637 116.309C49.2233 125.746 60.6136 124.241 62.2001 132.499C71.5971 181.355 89.008 184.366 104.71 184.61C113.375 184.732 111.992 177.287 117.402 178.304C131.518 180.989 131.64 125.421 102.798 102.396Z" fill="#9FBC50"/>
<path d="M179.805 66.069C192.456 75.9135 206.328 74.2049 206.409 73.7575C206.531 73.1879 193.27 72.8625 182.368 62.3672C186.639 56.8754 192.294 52.1972 199.657 48.9429C213.691 42.7189 207.223 41.2137 217.759 33.0371C231.549 22.2977 237.814 19.6535 241.597 19.5722C247.74 19.4094 246.276 14.6092 247.496 15.1788C248.269 15.5449 256.893 25.1046 252.093 35.4779C249.53 40.9697 244.16 40.929 240.865 48.8208C239.116 53.0108 240.092 55.0855 239.441 59.9264C238.058 70.3811 226.831 72.7405 228.051 81.0391C235.333 130.221 219.915 138.845 205.189 144.255C197.053 147.225 195.873 139.74 191.114 142.506C178.666 149.747 160.197 97.3517 179.805 66.069Z" fill="#346E00"/>
<path d="M181.961 32.3049C166.625 20.2231 159.791 8.46665 149.987 7.28694C144.576 6.63606 145.146 8.91412 139.98 4.96819C137.58 3.13761 135.668 0.330711 134.976 0.737508C134.325 1.1443 136.074 3.58509 135.749 6.51403C135.261 11.0701 130.135 12.4532 126.881 16.5212C124.481 19.5722 123.993 23.03 123.993 26.6098C133.43 30.7591 149.865 29.254 147.627 30.2303C145.309 31.2473 132.576 33.8508 124.196 33.5253C124.277 48.0073 118.135 52.0345 114.189 68.9166C111.178 81.8121 112.765 88.1174 113.05 105.894C113.904 159.958 100.439 171.918 112.277 193.722C113.579 196.163 129.403 215.16 143.681 215.282C152.265 215.363 154.787 208.57 166.015 207.96C176.998 207.35 180.293 213.533 191.439 214.509C191.439 214.509 198.965 215.648 213.569 206.048C250.384 181.843 221.624 63.5062 181.961 32.3049Z" fill="#7CA417"/>
<path d="M284.921 121.312C283.904 115.332 280.894 112.932 281.952 107.481C282.318 105.528 283.131 103.576 282.48 103.128C281.626 102.559 278.941 105.366 278.128 106.098C271.334 112.566 255.876 110.247 252.622 109.881C233.136 107.766 207.589 129.57 195.67 143.523C190.138 149.991 168.171 175.741 174.517 203.485C174.761 204.502 176.429 224.516 190.504 226.55C199.453 227.811 203.277 217.56 213.081 220.123C219.508 221.791 222.193 226.265 228.214 226.835C236.187 227.567 243.184 217.804 244.77 215.445C250.466 206.902 247.415 202.793 252.622 187.498C255.062 180.338 257.137 174.358 262.1 167.687C266.656 161.585 270.521 159.185 272.88 156.012C268.243 157.476 262.466 157.191 256.039 155.076C251.645 153.652 247.903 150.561 248.35 150.072C248.716 149.625 253.639 152.798 260.025 152.351C268.69 151.74 272.88 149.015 275.362 146.859C275.117 141.489 272.961 137.055 274.833 135.957C276.338 135.062 278.168 137.747 280.528 137.055C284.108 135.957 286.06 127.983 284.921 121.312Z" fill="#346E00"/>
<path d="M131.966 223.865C116.751 216.095 114.229 217.56 104.832 207.756C101.781 204.583 99.9915 199.295 80.4246 191.403C75.9091 189.572 79.0415 186.562 78.3906 185.87C77.3329 184.772 72.8175 188.759 70.7021 193.64C65.8206 205.112 67.6512 214.224 71.1089 221.709C83.8417 229.032 92.2623 224.882 92.8725 226.469C93.0759 227.038 83.1094 229.642 75.2176 229.154C76.8041 231.757 78.3906 234.157 79.611 236.354C83.1094 242.741 82.7026 254.456 86.5672 266.131C102.432 258.484 115.124 260.436 115.124 260.64C115.124 260.68 113.823 260.721 112.765 260.924C99.544 263.487 93.6048 269.467 89.6995 273.454C92.9132 279.474 97.7948 285.17 105.565 289.766C107.232 290.743 114.067 295.258 123.301 293.387C132.006 291.638 129.444 281.386 135.952 281.834C165.73 284.03 158.367 237.371 131.966 223.865Z" fill="#7CA417"/>
<path d="M184.402 412.904C194.206 387.926 202.382 362.298 207.345 335.979C209.827 322.839 211.454 309.537 211.901 296.153C212.105 289.482 212.023 282.81 211.616 276.139C211.169 269.467 210.396 262.837 209.176 256.287C208.85 254.66 208.566 253.033 208.199 251.365C207.833 249.697 207.508 248.029 207.182 246.361C206.572 243.026 206.003 239.649 205.637 236.232C204.823 229.439 204.538 222.604 204.823 215.77C205.108 208.936 205.921 202.143 207.386 195.471L207.955 192.99L208.565 190.508C209.013 188.881 209.42 187.254 209.908 185.586C210.844 182.332 211.901 179.077 213.122 175.904C215.522 169.517 218.451 163.375 222.03 157.558C225.61 151.781 229.8 146.371 234.641 141.611C237.041 139.211 239.645 137.014 242.33 134.98L244.404 133.516C245.096 133.028 245.828 132.58 246.52 132.092C247.943 131.197 249.408 130.302 250.872 129.489C256.771 126.153 263.076 123.59 269.585 121.8C263.117 123.753 256.893 126.438 251.116 129.895C249.652 130.75 248.269 131.685 246.845 132.621C246.154 133.109 245.462 133.557 244.77 134.085L242.777 135.591C240.133 137.665 237.651 139.943 235.292 142.343C230.614 147.144 226.587 152.595 223.21 158.371C219.834 164.148 217.068 170.29 214.871 176.636C213.772 179.809 212.796 183.023 211.942 186.237C211.535 187.864 211.128 189.491 210.722 191.118L210.152 193.559L209.664 196C208.403 202.549 207.752 209.221 207.63 215.892C207.549 222.564 207.955 229.235 208.891 235.825C209.338 239.12 209.949 242.415 210.64 245.67C211.006 247.297 211.372 248.924 211.739 250.592C212.145 252.219 212.511 253.928 212.837 255.596C214.22 262.267 215.196 269.061 215.806 275.854C216.417 282.648 216.661 289.482 216.579 296.316C216.457 309.944 215.115 323.571 212.918 336.996C208.484 363.885 200.796 390.123 191.48 415.629L184.402 412.904Z" fill="#7CA417"/>
<path d="M162.679 421.324C161.458 389.35 158.082 357.417 153.038 325.768C147.993 294.119 141.322 262.674 132.454 231.839C130.216 224.15 127.857 216.462 125.294 208.855C122.731 201.247 120.006 193.722 117.077 186.277C114.148 178.833 110.934 171.47 107.436 164.27C105.687 160.69 103.856 157.11 101.903 153.612C99.9508 150.113 97.9168 146.655 95.8015 143.279C91.4488 136.567 86.6892 130.099 81.0348 124.485C80.3025 123.793 79.611 123.102 78.8787 122.41L76.6414 120.417L74.3226 118.546C73.5497 117.936 72.6954 117.366 71.9225 116.797C71.1089 116.227 70.2547 115.698 69.4004 115.169C68.5461 114.681 67.6918 114.152 66.7969 113.746C65.0476 112.81 63.1764 112.078 61.3458 111.223C59.5152 110.369 57.6846 109.352 56.1388 107.969C54.593 106.627 53.2505 105.04 52.1115 103.372C51.542 102.559 50.9725 101.704 50.403 100.891C49.8335 100.077 49.2233 99.2636 48.6131 98.4907C47.352 96.9448 45.9689 95.4804 44.4637 94.2193C42.9586 92.9175 41.25 91.8192 39.5008 90.9243C37.7109 90.0293 35.8397 89.2971 33.9684 88.6055C32.0971 87.914 30.1852 87.2224 28.4766 86.1241C27.6224 85.5952 26.8088 84.985 26.0765 84.2935C25.3443 83.6019 24.7341 82.7883 24.1239 81.9747C24.7341 82.7883 25.385 83.5612 26.1172 84.2528C26.8494 84.9443 27.663 85.5139 28.5173 86.0427C30.2259 87.0597 32.1378 87.7512 34.0497 88.4021C35.9617 89.053 37.8736 89.7039 39.6635 90.5988C41.4941 91.4938 43.2027 92.5921 44.7892 93.8532C46.3757 95.1549 47.7995 96.5787 49.1012 98.1246C49.7521 98.8975 50.3623 99.7111 50.9725 100.525C51.542 101.338 52.1522 102.193 52.7217 102.965C53.8607 104.593 55.2032 106.098 56.7083 107.359C58.2135 108.62 59.922 109.596 61.7526 110.369C63.5832 111.183 65.4544 111.915 67.285 112.81C68.2207 113.217 69.0749 113.746 69.9699 114.234C70.8648 114.763 71.7191 115.291 72.5734 115.82C73.387 116.39 74.2413 116.959 75.0548 117.569L77.4549 119.441L79.7737 121.393C80.5466 122.044 81.2788 122.776 82.0111 123.427C87.8689 129.041 92.8725 135.509 97.388 142.181C99.6254 145.557 101.741 149.015 103.775 152.473C105.809 155.971 107.721 159.551 109.551 163.131C113.212 170.331 116.589 177.694 119.721 185.138C122.853 192.583 125.742 200.108 128.467 207.716C131.193 215.323 133.715 222.97 136.115 230.7C145.634 261.535 152.956 293.021 158.692 324.792C164.387 356.562 168.455 388.659 170.286 420.958L162.679 421.324Z" fill="#7CA417"/>
<path d="M179.48 408.022C172.808 376.74 168.333 344.928 165.445 312.995C162.598 281.061 161.377 248.924 162.435 216.869C162.72 208.855 163.126 200.841 163.737 192.868C164.347 184.854 165.16 176.881 166.177 168.948C167.194 161.015 168.537 153.083 170.123 145.232C170.937 141.327 171.832 137.421 172.849 133.557C173.866 129.692 175.005 125.868 176.266 122.044C178.829 114.478 181.88 107.034 185.988 100.199C186.517 99.3451 187.005 98.4908 187.575 97.6772L189.243 95.1958L191.033 92.7957C191.643 92.0227 192.294 91.2498 192.945 90.5176C193.595 89.7854 194.287 89.0531 194.979 88.3616C195.711 87.67 196.402 86.9785 197.175 86.3276C198.68 84.9852 200.267 83.8054 201.853 82.5444C203.44 81.2833 204.945 79.8188 206.084 78.1103C207.264 76.4018 208.159 74.5712 208.85 72.6592C209.216 71.7236 209.542 70.7473 209.908 69.8116C210.274 68.876 210.64 67.9404 211.088 67.0454C211.942 65.2555 212.918 63.5063 214.057 61.8791C215.237 60.2519 216.579 58.7874 218.085 57.445C219.59 56.1433 221.258 54.9636 222.885 53.8652C224.553 52.7262 226.221 51.5871 227.604 50.1227C228.295 49.3904 228.946 48.6175 229.475 47.7633C230.004 46.909 230.411 45.9734 230.777 45.0377C230.411 45.9734 229.963 46.8683 229.394 47.7226C228.824 48.5769 228.214 49.3498 227.482 50.0413C226.058 51.4651 224.39 52.5635 222.681 53.6618C221.014 54.7602 219.305 55.8585 217.759 57.2009C216.213 58.5027 214.83 60.0078 213.61 61.5944C212.389 63.2215 211.372 64.9708 210.477 66.8014C210.03 67.6963 209.623 68.6319 209.257 69.5676C208.891 70.5032 208.525 71.4388 208.159 72.3745C207.427 74.2457 206.532 75.995 205.352 77.5815C204.213 79.168 202.748 80.5104 201.203 81.7308C199.616 82.9512 197.989 84.1309 196.443 85.4326C195.67 86.0835 194.938 86.7751 194.165 87.4666C193.433 88.1989 192.741 88.8904 192.05 89.6633C191.399 90.4362 190.707 91.1685 190.056 91.9821L188.185 94.3822L186.436 96.8636C185.826 97.6772 185.337 98.5722 184.768 99.3858C180.456 106.261 177.202 113.746 174.435 121.353C173.093 125.177 171.873 129.041 170.774 132.906C169.676 136.811 168.699 140.716 167.764 144.662C165.974 152.554 164.509 160.487 163.289 168.46C162.069 176.433 161.092 184.447 160.36 192.502C159.587 200.515 158.977 208.57 158.57 216.625C156.902 248.843 157.472 281.183 159.709 313.361C161.987 345.538 165.893 377.675 171.995 409.446L179.48 408.022Z" fill="#7CA417"/>
<path d="M170.611 420.674C172.076 403.629 172.767 386.462 173.093 369.254C173.418 352.047 173.459 334.839 173.256 317.632C172.889 283.176 171.75 248.761 170.164 214.306C168.577 179.891 166.543 145.476 163.859 111.101C163.167 102.518 162.475 93.9345 161.662 85.3511L161.011 78.9237L160.319 72.4963C160.075 70.381 159.75 68.2656 159.221 66.191C158.733 64.1163 157.919 62.1637 156.984 60.2517C156.536 59.2754 156.089 58.2584 155.682 57.2414C155.316 56.2244 154.95 55.1668 154.665 54.1091C154.095 51.9938 153.729 49.8784 153.363 47.7224C152.672 43.451 152.143 39.1797 151.248 34.9897C150.394 30.7997 149.173 26.6097 147.383 22.7451C145.593 18.8398 143.153 15.2193 140.264 12.0463C143.234 15.1787 145.715 18.7585 147.627 22.6637C149.499 26.569 150.8 30.7183 151.777 34.949C152.712 39.1797 153.363 43.451 154.136 47.6817C154.543 49.7971 154.95 51.9124 155.56 53.9464C155.845 54.9634 156.211 55.9804 156.577 56.9567C156.984 57.933 157.431 58.9093 157.879 59.8856C158.855 61.7976 159.709 63.8722 160.279 65.9876C160.848 68.1029 161.214 70.2589 161.499 72.415L162.313 78.8423L163.086 85.2697C164.062 93.8531 164.916 102.437 165.77 111.02C169.066 145.354 171.71 179.769 173.947 214.184C176.144 248.599 177.934 283.095 178.951 317.591C179.439 334.839 179.764 352.128 179.724 369.417C179.683 386.706 179.317 403.995 178.137 421.365L170.611 420.674Z" fill="#346E00"/>
<path d="M159.302 421.65C158.652 401.473 156.902 381.296 153.729 361.363C150.556 341.43 146.041 321.659 139.735 302.459C136.562 292.858 132.983 283.38 128.833 274.186C124.684 264.952 120.006 256.002 114.636 247.419C109.266 238.876 103.205 230.7 96.2083 223.377C94.459 221.547 92.6285 219.798 90.9199 217.926C89.2114 216.055 87.5842 214.102 86.0384 212.068C84.4925 210.034 83.0687 207.96 81.8077 205.763C81.1975 204.665 80.5873 203.526 80.1398 202.346C79.6923 201.166 79.2855 199.946 79.3262 198.644C79.3262 199.905 79.733 201.126 80.2212 202.305C80.7093 203.485 81.3195 204.583 81.9297 205.682C83.2315 207.878 84.6959 209.912 86.2824 211.906C87.8689 213.899 89.5368 215.811 91.286 217.642C93.0352 219.472 94.8658 221.181 96.6964 223.011C103.856 230.212 110.121 238.307 115.694 246.809C121.267 255.311 126.148 264.26 130.501 273.495C134.854 282.688 138.637 292.167 142.014 301.767C148.726 320.968 153.689 340.819 157.268 360.834C160.848 380.889 163.004 401.188 164.062 421.528L159.302 421.65Z" fill="#346E00"/>
<path d="M240.865 273.535C234.804 277.766 214.912 289.929 193.148 298.879C169.676 308.52 147.261 316.005 139.288 314.134C135.708 313.32 130.623 311.978 128.833 308.52C125.498 301.97 135.952 290.133 142.217 284.763C145.959 281.549 149.987 279.068 157.757 274.268C162.557 271.298 166.218 269.264 167.398 268.613C175.045 264.342 187.9 254.375 203.603 244.246C213.528 237.859 220.891 232.612 234.072 225.777C244.852 220.204 249.449 218.78 254.086 220.245C262.263 222.848 267.836 233.629 267.307 242.863C266.615 255.514 254.452 264.016 240.865 273.535Z" fill="#F79556"/>
<path d="M184.036 302.215C184.198 289.889 182.815 279.312 179.724 269.874C178.829 267.149 177.893 264.627 176.917 262.348L176.673 261.779L177.201 261.413C179.032 260.152 181.025 258.769 183.1 257.304C189.039 253.155 195.792 248.395 203.236 243.636C205.148 242.415 206.938 241.236 208.688 240.097C216.091 235.256 223.047 230.7 233.746 225.127C242.533 220.57 246.967 218.984 250.669 218.984C251.93 218.984 253.15 219.187 254.371 219.553C263.239 222.401 268.609 233.954 268.121 242.944C267.388 256.002 255.306 264.423 241.313 274.186C236.106 277.807 216.213 290.255 193.433 299.611C190.585 300.791 187.778 301.889 185.053 302.947L183.995 303.354L184.036 302.215Z" fill="#F5641A"/>
<path d="M355.622 265.115C357.046 272.071 358.755 276.912 361.724 285.373C366.484 298.919 366.281 297.455 375.637 318.12C385.685 340.413 388.085 344.725 391.868 350.054C394.39 353.593 396.953 360.02 403.746 364.007C406.797 365.797 410.743 368.726 414.242 367.465C420.913 365.105 421.442 349.85 420.629 341.959C420.14 337.24 418.961 332.806 416.683 324.304C415.259 319.056 414.038 315.191 413.672 313.971C411.15 305.916 405.374 286.756 401.102 269.264C398.377 258.24 396.709 249.656 391.99 236.151C388.125 225.086 385.847 221.059 381.617 219.025C374.172 215.445 363.148 219.309 357.412 226.103C349.52 235.459 352.409 249.453 355.622 265.115Z" fill="#DD6326"/>
<path d="M325.153 94.667C302.047 92.9178 284.067 109.108 252.418 138.52C238.384 151.537 228.254 157.273 222.03 167.402C216.173 176.962 204.62 201.614 210.071 228.178C215.806 256.125 240.906 281.59 268.365 283.949C315.472 288.017 350.782 221.872 357.046 207.228C369.006 179.321 373.969 136.486 349.561 103.617C342.32 93.8535 329.018 94.9518 325.153 94.667Z" fill="#290708"/>
<path d="M386.417 326.541C396.383 325.809 407.082 322.107 416.723 315.964C414.445 307.91 406.838 275.773 400.858 253.196C391.054 216.136 382.512 211.499 359.446 210.97C336.422 210.441 326.089 198.115 296.352 204.38C284.718 206.821 271.212 213.207 257.747 217.316C237.204 223.581 222.803 228.218 211.535 235.459C206.287 238.836 227.685 286.675 237.529 305.632C240.296 310.961 250.018 345.254 229.393 378.041C220.078 398.788 214.057 409.446 223.495 414.084C243.631 423.969 260.88 424.132 314.699 420.023C351.432 417.216 375.515 421.203 366.484 402.002C350.334 367.79 374.254 347.532 386.417 326.541Z" fill="#F5641A"/>
<path d="M325.967 184.895C327.309 189.451 322.306 216.177 321.33 218.537C318.157 226.225 308.434 234.239 298.874 233.954C285.613 233.547 280.365 223.703 280.691 214.103C281.138 201.126 281.626 189.369 279.552 163.66C278.982 156.744 323.364 176.108 325.967 184.895Z" fill="#EC7D40"/>
<path d="M307.783 170.412C302.861 168.623 302.739 166.141 296.23 168.541C291.633 170.25 288.135 174.684 285.572 180.42C287.199 187.986 291.674 196.488 296.596 202.305C299.851 206.17 304.936 212.15 313.56 213.167C316.163 213.492 319.092 213.33 321.94 212.679C323.974 203.892 327.025 188.271 326.008 184.894C323.364 176.108 312.461 172.121 307.783 170.412Z" fill="#D66730"/>
<path d="M268.283 129.082C268.039 117.203 273.856 108.254 275.972 105.081C286.06 90.0293 296.922 86.124 300.949 85.1884C314.943 81.934 326.943 82.1781 338.049 90.5988C358.348 105.976 355.134 139.862 353.67 150.317C352.246 160.405 345.859 190.793 329.018 203.729C326.13 205.966 322.469 208.448 316.407 208.244C307.946 207.96 300.095 201.776 297.247 198.725C287.443 188.189 285.125 180.46 281.463 161.178C277.802 141.489 268.527 140.96 268.283 129.082Z" fill="#F79556"/>
<path d="M310.468 190.142C310.265 189.776 310.509 189.328 310.916 189.288C312.746 189.166 317.18 189.003 322.224 189.491C325.682 189.857 328.896 190.752 330.238 191.118C330.604 191.24 330.726 191.647 330.564 191.973C329.628 193.64 326.536 197.953 320.353 197.261C314.821 196.651 311.566 192.013 310.468 190.142Z" fill="#DC2947"/>
<path d="M336.706 146.534C337.195 145.273 338.008 144.215 338.903 143.32C339.839 142.384 340.896 141.652 342.035 141.042C344.395 139.821 347.202 139.781 349.765 140.065C350.415 140.147 351.066 140.188 351.677 140.35L352.612 140.554C352.938 140.635 353.263 140.757 353.629 140.838C354.931 141.327 356.029 142.059 357.006 142.913C358.918 144.622 353.792 143.849 352.816 143.686L352.083 143.605L351.27 143.564C350.741 143.523 350.212 143.564 349.683 143.605C349.154 143.645 348.626 143.767 348.137 143.849C347.609 144.011 347.12 144.093 346.632 144.296C345.656 144.622 344.68 144.947 343.663 145.191L340.49 146.005C339.391 146.289 338.252 146.574 336.951 146.859L336.706 146.534Z" fill="#290708"/>
<path d="M292.284 139.781C294.4 138.194 296.84 137.096 299.444 136.282C302.047 135.509 304.854 135.265 307.661 135.591C308.353 135.631 309.044 135.794 309.776 135.875C310.468 135.997 311.2 136.16 311.892 136.323C313.275 136.73 314.617 137.381 315.716 138.316C317.953 140.147 319.662 142.628 320.028 145.557L319.621 145.842C316.977 144.662 314.983 143.523 312.909 142.547C311.892 142.059 310.916 141.53 309.98 140.96C309.492 140.676 309.004 140.431 308.475 140.147C307.946 139.943 307.417 139.699 306.848 139.537C305.749 139.211 304.61 138.967 303.43 138.886C302.251 138.723 301.03 138.723 299.851 138.764C297.41 138.845 294.928 139.374 292.528 140.187L292.284 139.781Z" fill="#290708"/>
<path d="M301.315 152.961C301.356 153.653 303.471 155.564 309.532 155.32C312.217 155.198 314.902 154.425 314.821 153.083C314.78 151.781 312.949 149.503 310.59 149.218C306.522 148.69 301.234 151.578 301.315 152.961Z" fill="#E6E6E6"/>
<path d="M305.953 151.212C307.336 147.632 313.682 148.852 312.461 153.653C311.16 158.534 303.715 156.948 305.953 151.212Z" fill="#290708"/>
<path d="M315.472 154.059C314.739 153.368 314.048 152.798 313.356 152.473C312.665 152.147 311.932 151.985 311.2 151.985C309.736 151.903 308.109 152.229 306.441 152.513C304.732 152.839 302.942 153.164 300.99 153.246C300.013 153.286 298.996 153.246 297.979 153.002C297.491 152.88 296.962 152.676 296.515 152.351C296.067 152.025 295.701 151.578 295.539 151.13C295.986 151.334 296.434 151.415 296.84 151.415C297.247 151.374 297.654 151.334 298.061 151.212C298.874 151.008 299.647 150.723 300.502 150.439C302.169 149.869 303.919 149.259 305.79 148.934C307.661 148.608 309.776 148.445 311.892 149.218C312.949 149.584 313.926 150.276 314.577 151.171C315.187 152.025 315.472 153.042 315.472 154.059Z" fill="#290708"/>
<path d="M338.496 155.971C338.537 156.622 340.612 158.412 346.307 157.924C348.829 157.72 349.968 156.5 349.846 155.198C349.724 153.937 349.276 152.147 347.039 151.944C343.215 151.618 338.374 154.669 338.496 155.971Z" fill="#E6E6E6"/>
<path d="M343.052 154.385C344.191 151.09 350.009 151.944 349.073 156.378C348.097 160.812 341.263 159.673 343.052 154.385Z" fill="#290708"/>
<path d="M351.31 155.687C350.538 155.32 349.887 154.914 349.236 154.67C348.585 154.425 347.975 154.303 347.446 154.263C346.347 154.222 345.29 154.547 343.988 155.036C342.727 155.483 341.303 156.093 339.676 156.419C338.862 156.581 337.927 156.663 337.032 156.459C336.096 156.256 335.242 155.727 334.876 154.954C335.73 155.076 336.381 154.954 336.991 154.71C337.601 154.466 338.13 154.141 338.74 153.775C339.92 153.083 341.222 152.229 342.768 151.659C343.541 151.374 344.395 151.13 345.331 151.09C346.266 151.008 347.283 151.171 348.178 151.537C349.073 151.944 349.805 152.554 350.334 153.286C350.863 154.059 351.188 154.873 351.31 155.687Z" fill="#290708"/>
<path d="M285.816 169.07C285.247 170.046 283.131 173.545 280.446 173.463C277.558 173.382 275.728 172.812 272.595 165.734C269.626 159.022 269.788 153.001 270.155 151.415C270.399 150.398 271.049 147.347 273.572 146.045C276.785 144.337 280.691 146.615 281.423 147.022C287.932 150.967 289.925 162.195 285.816 169.07Z" fill="#F79556"/>
<path d="M242.736 161.829C254.005 156.297 265.598 151.7 275.565 148.934C317.465 137.421 332.72 109.149 332.72 109.149C332.72 109.149 372.342 153.571 360.911 188.393C356.802 200.922 351.677 206.943 351.432 209.912C352.734 209.912 354.036 209.831 355.419 209.668C355.663 209.628 355.907 209.628 356.151 209.587C360.219 203.444 366.199 188.352 366.199 188.352C371.203 173.952 369.21 161.504 365.264 136.608C363.677 126.56 361.602 110.898 350.822 94.9924C341.995 81.9749 330.238 81.0393 325.723 81.4867C323.892 82.0156 324.055 82.3003 323.73 82.1783C299.159 72.3338 275.565 79.6155 259.944 115.332C250.14 137.787 229.231 150.886 221.339 166.182C211.698 184.894 211.942 197.383 212.43 199.336C212.593 200.434 218.654 173.667 242.736 161.829Z" fill="#290708"/>
<path d="M212.43 162.602C216.945 162.317 218.817 161.544 218.817 161.544C220.403 160.893 221.136 160.283 222.681 160.243C223.169 160.243 225.448 160.202 226.831 161.91C228.376 163.822 227.604 166.345 227.522 166.629C226.831 168.826 224.837 170.087 222.641 171.104C215.196 174.521 206.491 174.114 201.04 173.545C192.416 172.65 188.185 170.006 186.639 166.589C185.419 163.863 185.663 161.504 188.388 159.632C193.677 156.053 204.05 163.131 212.43 162.602Z" fill="#D66730"/>
<path d="M405.699 335.775C405.699 335.775 413.388 343.87 417.862 357.579C418.35 359.085 419.083 361.688 417.903 364.048C417.537 364.78 416.357 366.651 412.411 367.912C408.221 369.255 397.075 370.15 388.939 365.593C379.705 360.427 375.718 351.233 373.033 344.969C369.901 337.85 398.906 328.616 405.699 335.775Z" fill="#DD6326"/>
<path d="M366.24 296.56C360.016 287.244 364.694 270.769 379.624 263.162C383.122 261.372 387.881 257.955 389.468 253.236C389.915 251.853 389.509 250.673 389.875 250.673C390.322 250.714 390.444 253.643 390.485 254.416C390.77 260.518 389.387 265.522 388.817 268.41C386.905 277.97 390.038 290.58 381.332 299.123C375.067 305.266 369.332 301.157 366.24 296.56Z" fill="#346E00"/>
<path d="M352.856 259.175C353.182 259.216 352.449 259.623 352.775 260.721C353.263 262.226 354.524 263.162 355.297 263.976C358.063 266.986 358.673 270.851 358.47 274.796C358.348 277.685 356.111 281.875 354.077 280.41C344.191 273.454 351.026 263.61 351.839 261.901C352.775 259.786 352.409 259.135 352.856 259.175Z" fill="#346E00"/>
<path d="M361.846 311.774C366.484 307.178 360.382 281.346 339.432 268.613C337.276 267.311 333.737 264.789 333.045 265.318C332.72 265.562 334.998 265.969 334.306 268.166C326.74 292.248 352.043 292.248 353.344 307.625C353.711 312.181 359.243 314.337 361.846 311.774Z" fill="#346E00"/>
<path d="M413.55 271.054C412.167 272.356 407.937 271.827 403.95 273.576C400.248 275.203 398.662 278.905 396.994 284.194C394.187 293.306 386.132 307.218 374.905 307.34C356.721 307.503 373.155 286.838 389.427 275.651C396.465 270.81 406.106 270.729 410.459 270.688C413.062 270.647 414.201 270.484 413.55 271.054Z" fill="#7CA417"/>
<path d="M364.735 250.796C366.118 250.145 364.247 255.636 371.203 262.674C386.01 277.726 382.959 308.113 367.46 309.618C361.318 310.229 338.374 285.699 363.107 256.938C365.996 253.562 364.206 251.04 364.735 250.796Z" fill="#7CA417"/>
<path d="M381.251 273.739C381.332 272.681 385.034 283.583 385.481 288.912C386.417 300.465 384.952 306.811 380.437 311.652C375.23 317.266 366.362 319.544 361.074 314.5C356.355 309.984 356.111 302.011 360.179 296.438C363.067 292.452 364.084 292.289 372.057 283.787C377.02 278.498 380.844 278.62 381.251 273.739Z" fill="#9FBC50"/>
<path d="M391.868 309.781C391.746 308.317 390.526 307.218 389.061 307.218H373.196H365.467H349.602C348.137 307.218 346.917 308.317 346.795 309.781L345.046 329.551V332.399C345.046 343.179 353.792 352.901 364.531 352.901H365.426H373.196H374.091C384.871 352.901 393.577 343.179 393.577 332.399V329.551L391.868 309.781Z" fill="#FFED00"/>
<path d="M223.658 171.836C221.38 168.134 219.224 163.659 213.325 159.022C212.023 158.005 211.332 157.558 210.437 156.947C207.955 155.239 202.667 154.629 192.7 153.896C191.358 153.815 189.731 153.327 188.266 154.222C186.721 155.157 187.127 156.459 185.378 158.086C183.629 159.754 182.571 159.103 180.659 160.934C179.52 162.073 178.91 163.253 178.585 163.944C177.69 165.775 177.974 166.385 176.998 168.866C176.307 170.656 176.103 170.412 175.615 171.836C174.883 173.87 175.045 175.009 174.761 177.002C174.354 178.874 160.279 206.292 159.262 208.122C141.607 238.958 130.176 265.887 125.904 298.065C125.579 300.587 124.887 307.869 129.403 311.083C137.132 316.534 146.692 308.072 148.482 306.364C164.103 291.109 166.177 286.105 170.408 269.955C178.625 238.835 182.368 209.221 183.71 204.339C184.483 201.532 185.459 197.952 186.517 195.756C187.087 195.024 187.656 194.454 188.185 194.291C188.592 194.169 189.202 193.437 191.399 194.332C193.351 195.146 196.362 196.976 199.087 195.186C202.179 193.152 200.958 190.711 201.447 190.223C201.935 189.694 202.667 190.345 203.928 189.979C205.392 189.532 206.206 188.108 206.45 187.66C207.06 186.521 207.386 184.935 207.874 184.203C208.891 182.616 210.559 183.959 212.471 182.047C216.01 178.508 212.308 172.162 212.674 171.958C213.325 171.633 218.613 181.192 223.088 181.925C223.495 182.006 224.024 182.169 225.041 181.518C226.139 180.826 226.546 180.338 226.587 179.077C226.668 176.921 225.488 174.806 223.658 171.836Z" fill="#F79556"/>
<path d="M195.182 161.91C196.931 161.748 198.68 161.951 200.389 162.358C202.097 162.765 203.725 163.416 205.27 164.229C206.816 165.043 208.24 166.1 209.542 167.28C210.803 168.5 211.901 169.884 212.715 171.429C211.25 170.453 209.867 169.517 208.484 168.622C207.101 167.728 205.677 166.914 204.253 166.141C202.83 165.368 201.365 164.636 199.86 163.985C198.355 163.293 196.809 162.643 195.182 161.91Z" fill="#D66730"/>
<path d="M190.666 170.494C192.578 170.657 194.45 171.145 196.28 171.755C198.07 172.365 199.86 173.179 201.528 174.114C203.196 175.091 204.823 176.27 206.125 177.776C206.776 178.548 207.345 179.443 207.671 180.42C207.996 181.396 208.118 182.372 208.037 183.349C207.63 182.454 207.264 181.599 206.735 180.908C206.206 180.176 205.596 179.606 204.945 178.996C203.562 177.898 202.016 176.921 200.47 176.026C198.884 175.091 197.257 174.236 195.629 173.341C193.921 172.406 192.294 171.511 190.666 170.494Z" fill="#D66730"/>
<path d="M185.622 180.46C187.249 180.623 188.795 181.03 190.3 181.518C191.805 182.006 193.27 182.616 194.694 183.389C196.118 184.162 197.46 185.017 198.68 186.115C199.291 186.684 199.86 187.295 200.308 187.986C200.755 188.678 201.162 189.451 201.243 190.264C200.185 189.044 198.924 188.271 197.663 187.498C196.362 186.725 195.019 186.034 193.677 185.301C192.334 184.569 190.951 183.837 189.609 183.064C188.266 182.291 186.883 181.477 185.622 180.46Z" fill="#D66730"/>
<path d="M349.521 335.531C351.107 333.619 353.06 334.148 353.141 333.701C353.182 333.416 352.897 333.294 352.612 332.765C352.002 331.626 352.734 329.267 353.711 328.331C354.809 327.273 356.965 326.744 359.121 326.46C359.284 326.419 359.406 326.215 359.324 326.053C359.04 325.361 359.04 324.832 359.04 324.71V324.67C358.999 324.304 358.918 323.287 359.487 322.229C359.731 321.781 359.975 321.171 361.236 320.439C364.45 318.568 373.115 318.771 376.979 318.812C380.315 318.853 388.736 319.747 391.624 320.439C396.384 321.537 397.604 322.473 398.417 323.693C398.417 323.693 398.417 323.734 398.458 323.734C399.679 325.687 399.231 328.453 397.441 329.958C396.994 330.365 396.424 330.731 395.773 331.016C395.611 331.097 395.448 331.138 395.326 331.178C394.675 331.423 394.431 332.358 394.919 332.846C395.407 333.334 395.733 333.863 395.895 334.392C396.424 336.182 396.099 337.809 396.099 337.809C395.814 339.192 395.163 340.209 394.878 340.616C393.983 341.877 393.495 341.633 392.682 342.65C391.583 344.033 392.885 344.806 392.031 347.288C390.77 350.949 387.963 351.356 387.759 352.006C387.231 353.43 388.532 353.471 387.678 355.464C387.109 356.725 385.969 357.539 385.278 357.783C380.396 359.654 370.959 356.969 367.257 355.749C367.257 355.749 358.389 352.454 353.995 347.816C353.385 347.165 352.897 346.637 352.816 345.904C352.694 344.684 353.67 344.115 353.426 343.382C353.1 342.284 351.473 342.772 349.805 340.982C347.568 338.663 349.236 335.897 349.521 335.531Z" fill="#EC7D40"/>
<path d="M354.85 333.823C354.687 333.823 354.646 334.067 354.809 334.148C357.168 334.88 359.528 335.49 361.928 336.019C364.613 336.629 367.298 337.118 369.982 337.565L372.016 337.891L374.05 338.175C374.701 338.257 375.393 338.379 376.044 338.501L378.037 338.826C379.379 339.07 380.722 339.314 382.105 339.518C383.163 339.68 384.261 339.802 385.319 339.965C385.481 340.006 385.563 339.721 385.4 339.68C385.034 339.518 384.668 339.314 384.302 339.192C383.651 338.908 383.04 338.663 382.39 338.419C381.088 337.931 379.827 337.484 378.484 337.036C377.183 336.629 375.8 336.263 374.457 335.979C373.766 335.816 373.115 335.734 372.423 335.612L370.389 335.287C367.664 334.84 364.979 334.514 362.213 334.27C360.829 334.148 359.446 334.067 358.063 333.985C357.372 333.945 356.68 333.945 355.989 333.945C355.663 333.782 355.256 333.782 354.85 333.823Z" fill="#DD6326"/>
<path d="M361.399 326.297C361.236 326.297 361.196 326.582 361.358 326.622C363.433 327.11 365.467 327.517 367.542 327.883C369.901 328.29 372.26 328.656 374.62 328.982L376.41 329.185L378.2 329.388L381.739 329.755C382.918 329.877 384.098 330.039 385.278 330.161C386.173 330.283 387.068 330.365 388.003 330.446C388.166 330.446 388.248 330.202 388.085 330.121C387.8 329.999 387.515 329.877 387.231 329.755C386.661 329.551 386.092 329.307 385.522 329.104C384.383 328.697 383.244 328.371 382.064 328.046C381.779 327.965 381.495 327.924 381.169 327.843C380.885 327.761 380.559 327.721 380.274 327.68C379.664 327.558 379.095 327.476 378.484 327.354C377.874 327.273 377.305 327.151 376.695 327.07L374.905 326.826C372.505 326.541 370.145 326.297 367.704 326.175C366.484 326.134 365.304 326.093 364.084 326.093C363.474 326.093 362.863 326.134 362.253 326.175C362.009 326.256 361.724 326.256 361.399 326.297Z" fill="#DD6326"/>
<path d="M355.338 343.138C355.175 343.138 355.134 343.382 355.297 343.464C355.623 343.586 355.948 343.667 356.273 343.748C356.843 343.911 357.412 344.074 357.982 344.236C359.121 344.562 360.26 344.847 361.358 345.131C363.636 345.701 365.874 346.23 368.152 346.759L369.86 347.125L371.569 347.491C372.138 347.613 372.708 347.735 373.277 347.816L374.132 347.979L374.986 348.142C376.125 348.345 377.305 348.549 378.444 348.711C379.013 348.793 379.623 348.874 380.193 348.955C380.518 348.996 380.885 349.037 381.21 349.077C381.373 349.077 381.454 348.833 381.291 348.793C380.966 348.63 380.681 348.467 380.356 348.345C379.827 348.101 379.298 347.857 378.729 347.613C377.63 347.165 376.532 346.759 375.433 346.352L374.579 346.067L373.725 345.782C373.155 345.62 372.586 345.457 372.057 345.294C371.488 345.131 370.918 344.969 370.349 344.847C369.779 344.684 369.21 344.562 368.64 344.44C366.362 343.911 364.002 343.545 361.643 343.301C360.463 343.179 359.284 343.138 358.104 343.097C357.25 343.057 356.314 343.057 355.338 343.138Z" fill="#DD6326"/>
<path d="M617.477 426.043H11.8387C5.49271 426.043 0.367065 420.918 0.367065 414.572C0.367065 408.226 5.49271 403.1 11.8387 403.1H617.437C623.783 403.1 628.908 408.226 628.908 414.572C628.949 420.877 623.823 426.043 617.477 426.043Z" fill="#282444"/>
</svg>
